<svg xmlns="http://www.w3.org/2000/svg" xmlns:xlink="http://www.w3.org/1999/xlink" version="1.1" style="enable-background:new 0 0 282.2 45.3;" xml:space="preserve" width="186" height="45"><rect id="backgroundrect" width="100%" height="100%" x="0" y="0" fill="#ffffff" stroke="none" class="" style="" fill-opacity="1"/>
<style type="text/css">
	.st0{fill:#231F20;}
</style>

<g class="currentLayer" style=""><title>Layer 1</title><g id="svg_1" class="">
	<g id="svg_2">
		<path class="st0" d="M0.8530000000000001,28.35114087285083 c3.414,0 6.189,-3.958768989801408 6.189,-8.869008141756057 c0,-0.15882575249671943 0,-0.3161671521663667 0,-0.47499290466308625 l-0.10700000000000005,-1.2676373143196111 H8.962 l-0.10700000000000005,1.4249787139892585 c0,0.15882575249671943 0,0.3161671521663667 0,0.47499290466308625 c0,2.6926160283088687 0.8540000000000004,5.226406304121017 2.347,6.810210770606995 c1.921,-2.5337902758121493 3.094,-7.1263779227733615 3.094,-12.036617074728012 c0,-0.3161671521663667 0,-0.6338186571598058 0,-0.7911600568294526 v-1.2676373143196111 h1.921 v1.2676373143196111 c0,0.3161671521663667 0,0.6338186571598058 0,0.7911600568294526 c0,4.9102391519546496 1.174,9.502826798915864 2.988,12.036617074728012 c1.387,-1.7426302189826965 2.241,-4.1175947422981265 2.241,-6.810210770606995 c0,-0.15882575249671943 0,-0.3161671521663667 0,-0.47499290466308625 v-1.4249787139892585 h2.027 l-0.10700000000000005,1.4249787139892585 c0,0.15882575249671943 0,0.3161671521663667 0,0.47499290466308625 c0,4.9102391519546496 2.774,8.869008141756057 6.189,8.869008141756057 h0.4270000000000002 c0.3200000000000003,-1.899971618652344 0.533,-3.8014275901317593 0.533,-5.860224961280823 c0,-12.511609979391098 -6.829,-22.648255435466766 -15.258,-22.648255435466766 S-1.6653345369377348e-16,10.136647331848557 -1.6653345369377348e-16,22.648257311239657 c0,2.0587973711490632 0.2130000000000001,3.958768989801408 0.533,5.860224961280823 h0.3200000000000003 V28.35114087285083 z" id="svg_3"/>
		<path class="st0" d="M22.406,24.70705468238872 c-0.4270000000000002,1.1088115618228918 -0.9600000000000004,2.2176231236457826 -1.6,3.1676089329719543 c0.533,0.3161671521663667 1.067,0.47499290466308625 1.6,0.47499290466308625 h0.8540000000000004 v2.6926160283088687 h-0.8540000000000004 c-1.174,0 -2.241,-0.47499290466308625 -3.201,-1.4249787139892585 c-0.9600000000000004,0.7911600568294526 -1.921,1.2676373143196111 -2.988,1.4249787139892585 c0,0 -0.533,0.15882575249671943 -0.9600000000000004,0.15882575249671943 c-0.3200000000000003,0 -0.9600000000000004,-0.15882575249671943 -0.9600000000000004,-0.15882575249671943 c-1.067,-0.15882575249671943 -2.134,-0.6338186571598058 -3.094,-1.4249787139892585 c-0.9600000000000004,0.9499858093261726 -2.027,1.4249787139892585 -3.201,1.4249787139892585 H7.255 v-2.6926160283088687 h0.8540000000000004 c0.533,0 1.067,-0.15882575249671943 1.6,-0.47499290466308625 c-0.6400000000000005,-0.9499858093261726 -1.28,-2.0587973711490632 -1.707,-3.1676089329719543 c-1.28,3.8014275901317593 -3.948,6.176392113447188 -6.9350000000000005,6.335217865943909 c2.241,8.235189484596253 7.789,14.095414445877076 14.191,14.095414445877076 s11.844,-5.860224961280823 14.191,-14.095414445877076 C26.354,31.04227254833263 23.686999999999998,28.508482272520478 22.406,24.70705468238872 z" id="svg_4"/>
		<path class="st0" d="M12.91,27.717322215691024 c0.7470000000000004,0.47499290466308625 1.494,0.6338186571598058 2.241,0.6338186571598058 h0.10700000000000005 c0.8540000000000004,0 1.6,-0.15882575249671943 2.347,-0.6338186571598058 c-0.9600000000000004,-1.5838044664859774 -1.814,-3.642601837635041 -2.347,-5.860224961280823 C14.724,24.074720378055982 13.870000000000001,26.133517749205048 12.91,27.717322215691024 z" id="svg_5"/>
	</g>
	<path class="st0" d="M36.25,23.98120614995044 v-10.89218104505539 h1.428 v5.177422660827637 l3.084,-5.192266189098358 h1.573 l-2.815,4.838990216255189 l2.991,6.068034357070923 h-1.604 l-2.287,-4.717273284435272 l-0.9420000000000004,1.459118829011917 v3.2566701025962828 H36.25 z" id="svg_6"/>
	<path class="st0" d="M43.174,23.98120614995044 v-10.90702457332611 h1.428 v10.90702457332611 H43.174 z" id="svg_7"/>
	<path class="st0" d="M47.562000000000005,16.991388687267715 v6.989817462682724 h-1.428 v-10.90702457332611 h1.107 l3.83,7.159033684968949 v-7.144190156698227 h1.428 v10.89218104505539 h-1.159 L47.562000000000005,16.991388687267715 z" id="svg_8"/>
	<path class="st0" d="M59.133,22.752162009134707 c-0.5870000000000004,0.8713151094913486 -1.27,1.3062304878234867 -2.05,1.3062304878234867 c-0.4830000000000002,0 -0.936,-0.14398222422599807 -1.361,-0.4304623198509219 c-0.4240000000000002,-0.2864800956249239 -0.794,-0.6813179476261141 -1.107,-1.1830292031764984 c-0.3140000000000002,-0.5017112555503851 -0.5630000000000004,-1.0939680335521702 -0.7450000000000004,-1.7752859811782835 c-0.1830000000000001,-0.6813179476261141 -0.274,-1.4160725970268253 -0.274,-2.2042639482021333 c0,-0.7481138248443604 0.09100000000000011,-1.4516970648765564 0.274,-2.1122340729236604 c0.1830000000000001,-0.6605370080471041 0.4350000000000002,-1.2394346106052403 0.7560000000000004,-1.7366928076744084 c0.3200000000000003,-0.4972581970691686 0.6980000000000007,-0.8920960490703588 1.133,-1.1830292031764984 c0.4350000000000002,-0.29093315410614023 0.907,-0.43788408398628276 1.4180000000000001,-0.43788408398628276 c0.6900000000000007,0 1.282,0.21523115992546096 1.775,0.6456934797763828 c0.4930000000000002,0.4304623198509219 0.8640000000000004,1.0093599224090586 1.113,1.7366928076744084 l-1.066,1.168185674905777 c-0.1860000000000001,-0.5432731347084048 -0.4470000000000003,-0.9574075734615333 -0.782,-1.2438876690864566 c-0.33500000000000035,-0.2864800956249239 -0.6990000000000007,-0.4304623198509219 -1.092,-0.4304623198509219 c-0.3110000000000002,0 -0.5950000000000004,0.09796728658676157 -0.8540000000000004,0.29093315410614023 c-0.259,0.19445022034645087 -0.4790000000000002,0.4616337292194369 -0.6620000000000007,0.7985818209648132 c-0.1830000000000001,0.3384324445724489 -0.3240000000000003,0.7273328852653504 -0.4240000000000002,1.1667013220787048 c-0.1,0.44085278964042696 -0.1500000000000001,0.9069395773410803 -0.1500000000000001,1.39826036310196 c0,0.5121017253398901 0.05500000000000003,0.9915476884841926 0.16600000000000015,1.4368535366058355 c0.11000000000000006,0.44530584812164337 0.262,0.8327219359874727 0.455,1.1607639107704164 c0.19300000000000014,0.32804197478294395 0.4230000000000002,0.5863193666934974 0.6880000000000007,0.776316528558731 c0.265,0.18999716186523447 0.554,0.2849957427978517 0.8640000000000004,0.2849957427978517 c0.7100000000000004,0 1.352,-0.4972581970691686 1.925,-1.4902902383804322 v-0.7674104115962983 h-1.48 v-1.5526330571174622 h2.66 v5.607884980678558 h-1.18 V22.752162009134707 z" id="svg_9"/>
	<path class="st0" d="M65.912,15.931560768738203 c-0.04800000000000003,-0.07124893569946289 -0.137,-0.1692162222862245 -0.264,-0.29241750693321245 c-0.128,-0.12320128464698801 -0.2830000000000002,-0.24343386363983172 -0.466,-0.36069773697853097 c-0.1830000000000001,-0.11726387333869945 -0.3810000000000002,-0.2167155127525331 -0.5950000000000004,-0.29983927106857305 c-0.2140000000000001,-0.08163940548896793 -0.4310000000000002,-0.12320128464698801 -0.6520000000000006,-0.12320128464698801 c-0.3930000000000003,0 -0.6870000000000007,0.10835775637626652 -0.8800000000000004,0.3235889163017275 c-0.19300000000000014,0.21523115992546096 -0.2900000000000002,0.5165547838211063 -0.2900000000000002,0.9069395773410803 c0,0.2256216297149659 0.03600000000000001,0.412650085926056 0.10900000000000006,0.5610853686332706 c0.07200000000000002,0.14843528270721446 0.1770000000000001,0.27905833148956316 0.3160000000000002,0.391869146347046 c0.138,0.11281081485748297 0.3120000000000002,0.21523115992546096 0.522,0.30726103520393383 c0.2100000000000001,0.09202987527847299 0.454,0.18999716186523447 0.7300000000000004,0.29093315410614023 c0.3590000000000002,0.14398222422599807 0.6840000000000007,0.29835491824150095 0.978,0.4616337292194369 c0.2930000000000002,0.16476316380500805 0.542,0.36811950111389186 0.7450000000000004,0.6145220704078677 c0.203,0.24640256929397597 0.3600000000000002,0.5403044290542605 0.4710000000000002,0.8831899321079258 c0.11000000000000006,0.34288550305366533 0.16600000000000015,0.7659260587692261 0.16600000000000015,1.2676373143196111 c0,0.5833506610393526 -0.07400000000000002,1.0835775637626652 -0.22300000000000014,1.4977120025157926 c-0.1480000000000001,0.41413443875312805 -0.34800000000000036,0.7495981776714327 -0.6000000000000004,1.0063912167549143 c-0.252,0.2567930390834808 -0.542,0.4438214952945713 -0.8690000000000004,0.5610853686332706 s-0.6710000000000007,0.1766379864215852 -1.03,0.1766379864215852 c-0.552,0 -1.097,-0.12320128464698801 -1.6350000000000002,-0.36811950111389186 s-1.021,-0.5937411308288577 -1.449,-1.0449843902587894 l0.6310000000000004,-1.8287226829528809 c0.06200000000000005,0.09202987527847299 0.17400000000000004,0.21226245427131665 0.33700000000000035,0.36069773697853097 c0.16200000000000014,0.14843528270721446 0.3530000000000002,0.29835491824150095 0.5740000000000004,0.44530584812164337 c0.2210000000000001,0.14843528270721446 0.466,0.27460527300834675 0.7350000000000004,0.37702561807632445 c0.269,0.102420345067978 0.545,0.15288834118843087 0.8280000000000004,0.15288834118843087 c0.786,0 1.18,-0.37405691242218025 1.18,-1.122170737266541 c0,-0.23601209950447097 -0.04500000000000004,-0.43491537833213834 -0.135,-0.5996785421371461 c-0.0900000000000001,-0.16327881097793587 -0.2180000000000001,-0.30726103520393383 -0.3830000000000003,-0.4304623198509219 c-0.16600000000000015,-0.12320128464698801 -0.3660000000000002,-0.23601209950447097 -0.6000000000000004,-0.3384324445724489 c-0.23500000000000001,-0.102420345067978 -0.4970000000000002,-0.21523115992546096 -0.786,-0.3384324445724489 c-0.3520000000000002,-0.14398222422599807 -0.6570000000000007,-0.29983927106857305 -0.916,-0.4690554933547977 s-0.4740000000000002,-0.36811950111389186 -0.6470000000000006,-0.5996785421371461 c-0.17200000000000001,-0.2300746881961824 -0.3020000000000002,-0.49577384424209636 -0.3880000000000003,-0.7985818209648132 c-0.08600000000000008,-0.30280797672271736 -0.129,-0.6635057137012484 -0.129,-1.0835775637626652 c0,-0.5536636044979096 0.06900000000000008,-1.0449843902587894 0.2070000000000001,-1.4754467101097106 c0.138,-0.4304623198509219 0.3290000000000003,-0.7881913511753084 0.5740000000000004,-1.0761557996273046 c0.2450000000000001,-0.2864800956249239 0.53,-0.5046799612045294 0.8540000000000004,-0.6531152439117435 c0.3240000000000003,-0.14843528270721446 0.6730000000000007,-0.22265292406082168 1.045,-0.22265292406082168 c0.517,0 0.994,0.12023257899284369 1.428,0.36069773697853097 c0.4350000000000002,0.2404651579856874 0.8140000000000004,0.5254609007835389 1.139,0.8520185227394108 L65.912,15.931560768738203 z" id="svg_10"/>
	<path class="st0" d="M73.798,21.171326248302872 c0,0.4601493763923648 -0.06200000000000005,0.8653776981830602 -0.1860000000000001,1.2127162597179417 c-0.12400000000000005,0.34882291436195395 -0.2950000000000002,0.6397560684680943 -0.512,0.8757681679725652 c-0.2180000000000001,0.23601209950447097 -0.4700000000000002,0.4156187915802003 -0.7560000000000004,0.5388200762271885 c-0.2860000000000002,0.12320128464698801 -0.5920000000000004,0.18405975055694593 -0.916,0.18405975055694593 h-3.55 v-10.90702457332611 h3.933 c0.255,0 0.4870000000000002,0.08163940548896793 0.6930000000000007,0.24640256929397597 s0.3830000000000003,0.3755412652492524 0.528,0.6367873628139499 c0.1450000000000001,0.26124609756469735 0.257,0.5581166629791262 0.33700000000000035,0.8906116962432868 c0.07900000000000006,0.3339793860912325 0.11900000000000008,0.6679587721824647 0.11900000000000008,1.0063912167549143 c0,0.5328826649188998 -0.0900000000000001,1.0316252148151406 -0.269,1.4977120025157926 c-0.1790000000000001,0.4660867877006534 -0.4410000000000002,0.8119409964084627 -0.786,1.0375626261234292 c0.4210000000000002,0.18405975055694593 0.7540000000000004,0.5150704309940344 0.999,0.9915476884841926 C73.676,19.857673996344026 73.798,20.454383832827027 73.798,21.171326248302872 zM69.307,14.886576378479418 v2.7505057885646824 h1.905 c0.2410000000000001,0 0.4470000000000003,-0.12320128464698801 0.6150000000000004,-0.36811950111389186 c0.16900000000000018,-0.24640256929397597 0.254,-0.5833506610393526 0.254,-1.013812980890275 c0,-0.42007185006141684 -0.07700000000000005,-0.7525668833255769 -0.233,-0.9989694526195537 s-0.34700000000000036,-0.36811950111389186 -0.5750000000000004,-0.36811950111389186 H69.307 zM72.36,20.770550984993392 c0,-0.19445022034645087 -0.022000000000000026,-0.38147867655754103 -0.06700000000000007,-0.5610853686332706 c-0.04500000000000004,-0.17812233924865722 -0.10500000000000002,-0.3354637389183046 -0.1810000000000001,-0.4690554933547977 c-0.07600000000000005,-0.13359175443649307 -0.16600000000000015,-0.23749645233154315 -0.269,-0.3146827993392947 c-0.10300000000000002,-0.07718634700775152 -0.2170000000000001,-0.11429516768455514 -0.34200000000000036,-0.11429516768455514 h-2.194 V22.185139229193144 h2.122 c0.131,0 0.254,-0.03562446784973147 0.3670000000000002,-0.10835775637626652 c0.11400000000000007,-0.07124893569946289 0.2120000000000001,-0.17070057511329662 0.2950000000000002,-0.29983927106857305 s0.1480000000000001,-0.27905833148956316 0.19600000000000015,-0.4527276122570041 S72.36,20.965001205339846 72.36,20.770550984993392 z" id="svg_11"/>
	<path class="st0" d="M74.917,23.98120614995044 v-10.90702457332611 h3.25 c0.33800000000000036,0 0.6500000000000006,0.10538905072212221 0.936,0.3146827993392947 c0.2860000000000002,0.2092937486171723 0.533,0.48686772727966354 0.7400000000000004,0.8297532303333286 c0.2070000000000001,0.34288550305366533 0.3690000000000002,0.7332702965736394 0.4860000000000002,1.168185674905777 c0.11700000000000008,0.43491537833213834 0.1760000000000001,0.8727994623184212 0.1760000000000001,1.3136522519588478 c0,0.7065519456863405 -0.11900000000000008,1.3492767198085784 -0.3570000000000002,1.9281743223667145 c-0.23800000000000004,0.5788976025581366 -0.561,0.9960007469654092 -0.9680000000000004,1.2513094332218175 l1.677,4.101266861200332 h-1.604 l-1.501,-3.6559610130786897 h-1.408 v3.6559610130786897 H74.917 zM76.345,18.466835397377427 h1.79 c0.131,0 0.254,-0.0460149376392365 0.3670000000000002,-0.13804481291770948 c0.11400000000000007,-0.09202987527847299 0.2120000000000001,-0.21819986557960525 0.2950000000000002,-0.37702561807632445 c0.08300000000000007,-0.15882575249671943 0.1480000000000001,-0.34585420870780964 0.19700000000000015,-0.5610853686332706 c0.04800000000000003,-0.21523115992546096 0.07300000000000002,-0.44530584812164337 0.07300000000000002,-0.6917084174156193 c0,-0.25530868625640885 -0.027000000000000027,-0.49132078576087995 -0.08300000000000007,-0.7065519456863405 c-0.05500000000000003,-0.21523115992546096 -0.129,-0.40225961613655087 -0.22200000000000014,-0.5610853686332706 s-0.2,-0.2820270371437074 -0.3210000000000003,-0.36811950111389186 c-0.12000000000000002,-0.08757681679725653 -0.2430000000000001,-0.13062304878234873 -0.3670000000000002,-0.13062304878234873 h-1.729 V18.466835397377427 z" id="svg_12"/>
	<path class="st0" d="M81.799,23.98120614995044 v-10.90702457332611 h1.428 v10.90702457332611 H81.799 z" id="svg_13"/>
	<path class="st0" d="M84.759,23.98120614995044 v-10.90702457332611 h2.67 c0.6000000000000004,0 1.126,0.14398222422599807 1.578,0.4304623198509219 c0.452,0.2864800956249239 0.8290000000000004,0.6768648891448977 1.133,1.168185674905777 c0.3030000000000002,0.49132078576087995 0.531,1.0672496826648716 0.6830000000000007,1.7277866907119752 c0.1520000000000001,0.6605370080471041 0.22800000000000015,1.3641202480793 0.22800000000000015,2.1122340729236604 c0,0.8297532303333286 -0.08500000000000008,1.5793514080047608 -0.254,2.25027888584137 c-0.16900000000000018,0.670927477836609 -0.4120000000000002,1.2438876690864566 -0.7300000000000004,1.7203649265766143 c-0.3170000000000002,0.47499290466308625 -0.6990000000000007,0.8445967586040501 -1.1440000000000001,1.1058428561687474 c-0.4450000000000003,0.26124609756469735 -0.9440000000000004,0.391869146347046 -1.495,0.391869146347046 H84.759 zM89.613,18.51285033501666 c0,-0.5224921951293946 -0.04800000000000003,-1.00342251110077 -0.1450000000000001,-1.4442753007411957 c-0.09700000000000011,-0.44085278964042696 -0.23800000000000004,-0.8193627605438233 -0.4240000000000002,-1.1370142655372624 c-0.1860000000000001,-0.31765150499343886 -0.4160000000000002,-0.5640540742874148 -0.6880000000000007,-0.7377233550548556 s-0.5810000000000004,-0.26124609756469735 -0.926,-0.26124609756469735 h-1.242 v7.190205094337464 h1.242 c0.3520000000000002,0 0.6640000000000007,-0.09202987527847299 0.936,-0.2760896258354189 c0.273,-0.18405975055694593 0.5,-0.43788408398628276 0.6830000000000007,-0.7614730002880098 c0.1830000000000001,-0.32210456347465544 0.3220000000000003,-0.7035832400321963 0.4190000000000002,-1.1444360296726228 C89.565,19.50142931784671 89.613,19.024952060356554 89.613,18.51285033501666 z" id="svg_14"/>
	<path class="st0" d="M97.272,22.752162009134707 c-0.5870000000000004,0.8713151094913486 -1.27,1.3062304878234867 -2.05,1.3062304878234867 c-0.4830000000000002,0 -0.936,-0.14398222422599807 -1.361,-0.4304623198509219 c-0.4240000000000002,-0.2864800956249239 -0.794,-0.6813179476261141 -1.107,-1.1830292031764984 c-0.3140000000000002,-0.5017112555503851 -0.5630000000000004,-1.0939680335521702 -0.7450000000000004,-1.7752859811782835 c-0.1830000000000001,-0.6813179476261141 -0.274,-1.4160725970268253 -0.274,-2.2042639482021333 c0,-0.7481138248443604 0.09100000000000011,-1.4516970648765564 0.274,-2.1122340729236604 c0.1830000000000001,-0.6605370080471041 0.4350000000000002,-1.2394346106052403 0.7560000000000004,-1.7366928076744084 c0.3200000000000003,-0.4972581970691686 0.6980000000000007,-0.8920960490703588 1.133,-1.1830292031764984 c0.4350000000000002,-0.29093315410614023 0.907,-0.43788408398628276 1.4180000000000001,-0.43788408398628276 c0.6900000000000007,0 1.282,0.21523115992546096 1.775,0.6456934797763828 c0.4930000000000002,0.4304623198509219 0.8640000000000004,1.0093599224090586 1.113,1.7366928076744084 l-1.066,1.168185674905777 c-0.1860000000000001,-0.5432731347084048 -0.4470000000000003,-0.9574075734615333 -0.782,-1.2438876690864566 c-0.33500000000000035,-0.2864800956249239 -0.6990000000000007,-0.4304623198509219 -1.092,-0.4304623198509219 c-0.3110000000000002,0 -0.5950000000000004,0.09796728658676157 -0.8540000000000004,0.29093315410614023 c-0.259,0.19445022034645087 -0.4790000000000002,0.4616337292194369 -0.6620000000000007,0.7985818209648132 c-0.1830000000000001,0.3384324445724489 -0.3240000000000003,0.7273328852653504 -0.4240000000000002,1.1667013220787048 c-0.1,0.44085278964042696 -0.1500000000000001,0.9069395773410803 -0.1500000000000001,1.39826036310196 c0,0.5121017253398901 0.05500000000000003,0.9915476884841926 0.16600000000000015,1.4368535366058355 c0.11000000000000006,0.44530584812164337 0.262,0.8327219359874727 0.455,1.1607639107704164 c0.19300000000000014,0.32804197478294395 0.4230000000000002,0.5863193666934974 0.6880000000000007,0.776316528558731 c0.265,0.18999716186523447 0.554,0.2849957427978517 0.8640000000000004,0.2849957427978517 c0.7100000000000004,0 1.352,-0.4972581970691686 1.925,-1.4902902383804322 v-0.7674104115962983 h-1.48 v-1.5526330571174622 h2.66 v5.607884980678558 h-1.18 V22.752162009134707 z" id="svg_15"/>
	<path class="st0" d="M104.776,22.122796410456118 v1.858409739494324 h-5.103 v-10.90702457332611 h5.01 v1.858409739494324 h-3.581 v2.6273045039176943 h3.095 v1.7203649265766143 h-3.095 v2.842535663843155 H104.776 z" id="svg_16"/>
	<path class="st0" d="M113.583,14.934075668945727 h-2.349 v9.048614833831786 h-1.4180000000000001 v-9.048614833831786 h-2.349 v-1.858409739494324 h6.116 V14.934075668945727 z" id="svg_17"/>
	<path class="st0" d="M119.596,22.122796410456118 v1.858409739494324 h-5.103 v-10.90702457332611 h5.01 v1.858409739494324 h-3.581 v2.6273045039176943 h3.095 v1.7203649265766143 h-3.095 v2.842535663843155 H119.596 z" id="svg_18"/>
	<path class="st0" d="M120.114,18.451991869106703 c0,-0.6649900665283208 0.08100000000000006,-1.3240427217483526 0.2430000000000001,-1.974189260005951 c0.16200000000000014,-0.6501465382575994 0.39800000000000035,-1.2305284936428074 0.7090000000000004,-1.7441145718097686 c0.3110000000000002,-0.5121017253398901 0.6900000000000007,-0.926236164093018 1.139,-1.2438876690864566 c0.4480000000000003,-0.31765150499343886 0.9590000000000004,-0.47647725749015835 1.532,-0.47647725749015835 c0.6760000000000007,0 1.2610000000000001,0.22116857123374947 1.754,0.6605370080471041 c0.4930000000000002,0.44085278964042696 0.8610000000000004,1.013812980890275 1.102,1.7203649265766143 l-1.097,1.122170737266541 c-0.09700000000000011,-0.30726103520393383 -0.2140000000000001,-0.5655384271144871 -0.3520000000000002,-0.7748321757316587 c-0.138,-0.2092937486171723 -0.2860000000000002,-0.37702561807632445 -0.4450000000000003,-0.5002269027233127 c-0.1590000000000001,-0.12320128464698801 -0.3250000000000003,-0.21226245427131665 -0.4970000000000002,-0.2686678617000582 c-0.17200000000000001,-0.0564054074287415 -0.34200000000000036,-0.08460811114311223 -0.507,-0.08460811114311223 c-0.3590000000000002,0 -0.6710000000000007,0.10835775637626652 -0.936,0.3235889163017275 c-0.266,0.21523115992546096 -0.4870000000000002,0.4942894914150243 -0.6620000000000007,0.8371749944686896 c-0.1760000000000001,0.34288550305366533 -0.3090000000000002,0.731785943746567 -0.39800000000000035,1.1667013220787048 c-0.0900000000000001,0.43639973115921055 -0.135,0.8683464038372044 -0.135,1.298808723688126 c0,0.482414668798447 0.05200000000000004,0.9440483980178839 0.1550000000000001,1.3908385989665986 c0.10300000000000002,0.44530584812164337 0.25,0.8371749944686896 0.4400000000000002,1.1756074390411377 c0.1890000000000001,0.3369480917453768 0.4170000000000002,0.6085846590995792 0.6830000000000007,0.8134253492355348 c0.265,0.20484069013595585 0.557,0.30726103520393383 0.8750000000000004,0.30726103520393383 c0.16600000000000015,0 0.33800000000000036,-0.03117140936851504 0.517,-0.09202987527847299 c0.1790000000000001,-0.06085846590995794 0.3500000000000002,-0.15882575249671943 0.512,-0.29093315410614023 c0.16200000000000014,-0.13359175443649307 0.3120000000000002,-0.3042923295497895 0.45,-0.5150704309940344 c0.138,-0.2092937486171723 0.2480000000000001,-0.46311808204650906 0.3310000000000003,-0.7614730002880098 l1.17,0.9989694526195537 c-0.11700000000000008,0.4096813802719117 -0.2850000000000002,0.7718634700775147 -0.502,1.0835775637626652 c-0.2170000000000001,0.31171409368515035 -0.462,0.5759288969039922 -0.7350000000000004,0.7911600568294526 c-0.273,0.21523115992546096 -0.5640000000000004,0.3799943237304689 -0.8750000000000004,0.49132078576087995 c-0.3110000000000002,0.11281081485748297 -0.6140000000000004,0.1692162222862245 -0.911,0.1692162222862245 c-0.525,0 -1.004,-0.16476316380500805 -1.439,-0.49132078576087995 c-0.4350000000000002,-0.32804197478294395 -0.809,-0.7555355889797211 -1.123,-1.2824808425903325 c-0.3140000000000002,-0.5269452536106114 -0.559,-1.1266237957477574 -0.7350000000000004,-1.7975512735843662 C120.20100000000001,19.83095564545673 120.114,19.14815334500354 120.114,18.451991869106703 z" id="svg_19"/>
	<path class="st0" d="M133.838,13.07418157662433 v10.90702457332611 h-1.4180000000000001 v-4.654930465698242 h-3.333 v4.654930465698242 h-1.428 v-10.90702457332611 h1.428 v4.408527896404266 h3.333 v-4.408527896404266 H133.838 z" id="svg_20"/>
	<path class="st0" d="M136.798,16.991388687267715 v6.989817462682724 h-1.428 v-10.90702457332611 h1.107 l3.829,7.159033684968949 v-7.144190156698227 h1.429 v10.89218104505539 h-1.159 L136.798,16.991388687267715 z" id="svg_21"/>
	<path class="st0" d="M146.40200000000002,24.05839249695819 c-0.539,0 -1.027,-0.15585704684257518 -1.465,-0.4690554933547977 c-0.4390000000000002,-0.31171409368515035 -0.8150000000000004,-0.7273328852653504 -1.1280000000000001,-1.2438876690864566 c-0.3140000000000002,-0.5165547838211063 -0.558,-1.1088115618228918 -0.7300000000000004,-1.7738016283512117 c-0.17200000000000001,-0.6649900665283208 -0.259,-1.3463080141544346 -0.259,-2.0439538428783415 c0,-0.7273328852653504 0.09100000000000011,-1.4234943611621862 0.275,-2.088484427690506 c0.1830000000000001,-0.6649900665283208 0.4340000000000002,-1.2542781388759618 0.7560000000000004,-1.766379864215851 c0.3200000000000003,-0.5121017253398901 0.7020000000000004,-0.9188143999576571 1.143,-1.2216223766803747 c0.4410000000000002,-0.3013236238956453 0.921,-0.4527276122570041 1.439,-0.4527276122570041 c0.532,0 1.016,0.16179445815086377 1.455,0.48389902162551907 c0.4380000000000002,0.32210456347465544 0.812,0.7451451191902162 1.123,1.2676373143196111 c0.3110000000000002,0.5224921951293946 0.552,1.1162333259582524 0.7240000000000004,1.7812233924865724 c0.17300000000000001,0.666474419355393 0.259,1.341854955673218 0.259,2.02911031460762 c0,0.7273328852653504 -0.0900000000000001,1.4205256555080419 -0.269,2.0810626635551452 c-0.1800000000000001,0.6605370080471041 -0.4280000000000002,1.2438876690864566 -0.7460000000000004,1.7515363359451293 c-0.3170000000000002,0.5076486668586737 -0.6960000000000007,0.9113926358222965 -1.138,1.2127162597179417 C147.399,23.906988508596832 146.92,24.05839249695819 146.40200000000002,24.05839249695819 zM144.27,18.527693863287386 c0,0.472024199008942 0.04800000000000003,0.9277205169200904 0.1450000000000001,1.3670889537334445 c0.09700000000000011,0.44085278964042696 0.23600000000000004,0.8297532303333286 0.4190000000000002,1.168185674905777 c0.1830000000000001,0.3369480917453768 0.4070000000000002,0.6085846590995792 0.6730000000000007,0.8134253492355348 c0.265,0.20484069013595585 0.5670000000000004,0.30726103520393383 0.905,0.30726103520393383 c0.34600000000000036,0 0.6510000000000006,-0.10538905072212221 0.916,-0.3146827993392947 c0.266,-0.2092937486171723 0.4910000000000002,-0.48835208010673553 0.6730000000000007,-0.8371749944686896 c0.1830000000000001,-0.34733856153488185 0.3200000000000003,-0.7392077078819276 0.4140000000000002,-1.1741230862140657 c0.09300000000000011,-0.43639973115921055 0.14,-0.8787368736267096 0.14,-1.3299801330566414 c0,-0.4705398461818698 -0.05000000000000004,-0.926236164093018 -0.1500000000000001,-1.3670889537334445 c-0.1,-0.4393684368133548 -0.2420000000000001,-0.8297532303333286 -0.4240000000000002,-1.1667013220787048 c-0.1840000000000001,-0.3384324445724489 -0.4070000000000002,-0.607100306272507 -0.6730000000000007,-0.806003585100174 c-0.266,-0.1989032788276673 -0.5640000000000004,-0.29983927106857305 -0.8950000000000006,-0.29983927106857305 c-0.34500000000000036,0 -0.6520000000000006,0.10538905072212221 -0.921,0.3146827993392947 c-0.269,0.2092937486171723 -0.4930000000000002,0.48686772727966354 -0.6720000000000007,0.8297532303333286 c-0.1800000000000001,0.34288550305366533 -0.3160000000000002,0.731785943746567 -0.4090000000000002,1.1667013220787048 C144.316,17.634113461389955 144.27,18.077934956684526 144.27,18.527693863287386 z" id="svg_22"/>
	<path class="st0" d="M151.09,23.98120614995044 v-10.90702457332611 h1.428 v9.048614833831786 h3.746 v1.858409739494324 H151.09 z" id="svg_23"/>
	<path class="st0" d="M159.805,24.05839249695819 c-0.539,0 -1.027,-0.15585704684257518 -1.465,-0.4690554933547977 c-0.4390000000000002,-0.31171409368515035 -0.8150000000000004,-0.7273328852653504 -1.1280000000000001,-1.2438876690864566 c-0.3140000000000002,-0.5165547838211063 -0.558,-1.1088115618228918 -0.7300000000000004,-1.7738016283512117 c-0.17200000000000001,-0.6649900665283208 -0.259,-1.3463080141544346 -0.259,-2.0439538428783415 c0,-0.7273328852653504 0.09100000000000011,-1.4234943611621862 0.275,-2.088484427690506 c0.1830000000000001,-0.6649900665283208 0.4340000000000002,-1.2542781388759618 0.7560000000000004,-1.766379864215851 c0.3200000000000003,-0.5121017253398901 0.7020000000000004,-0.9188143999576571 1.143,-1.2216223766803747 c0.4410000000000002,-0.3013236238956453 0.921,-0.4527276122570041 1.439,-0.4527276122570041 c0.532,0 1.016,0.16179445815086377 1.455,0.48389902162551907 c0.4380000000000002,0.32210456347465544 0.812,0.7451451191902162 1.123,1.2676373143196111 c0.3110000000000002,0.5224921951293946 0.552,1.1162333259582524 0.7240000000000004,1.7812233924865724 c0.17300000000000001,0.666474419355393 0.259,1.341854955673218 0.259,2.02911031460762 c0,0.7273328852653504 -0.0900000000000001,1.4205256555080419 -0.269,2.0810626635551452 c-0.1800000000000001,0.6605370080471041 -0.4280000000000002,1.2438876690864566 -0.7460000000000004,1.7515363359451293 c-0.3170000000000002,0.5076486668586737 -0.6960000000000007,0.9113926358222965 -1.138,1.2127162597179417 C160.802,23.906988508596832 160.323,24.05839249695819 159.805,24.05839249695819 zM157.673,18.527693863287386 c0,0.472024199008942 0.04800000000000003,0.9277205169200904 0.1450000000000001,1.3670889537334445 c0.09700000000000011,0.44085278964042696 0.23600000000000004,0.8297532303333286 0.4190000000000002,1.168185674905777 c0.1830000000000001,0.3369480917453768 0.4070000000000002,0.6085846590995792 0.6730000000000007,0.8134253492355348 c0.265,0.20484069013595585 0.5670000000000004,0.30726103520393383 0.905,0.30726103520393383 c0.34600000000000036,0 0.6510000000000006,-0.10538905072212221 0.916,-0.3146827993392947 c0.266,-0.2092937486171723 0.4910000000000002,-0.48835208010673553 0.6730000000000007,-0.8371749944686896 c0.1830000000000001,-0.34733856153488185 0.3200000000000003,-0.7392077078819276 0.4140000000000002,-1.1741230862140657 c0.09300000000000011,-0.43639973115921055 0.14,-0.8787368736267096 0.14,-1.3299801330566414 c0,-0.4705398461818698 -0.05000000000000004,-0.926236164093018 -0.1490000000000001,-1.3670889537334445 c-0.1,-0.4393684368133548 -0.2420000000000001,-0.8297532303333286 -0.4240000000000002,-1.1667013220787048 c-0.1840000000000001,-0.3384324445724489 -0.4070000000000002,-0.607100306272507 -0.6730000000000007,-0.806003585100174 c-0.266,-0.1989032788276673 -0.5640000000000004,-0.29983927106857305 -0.8950000000000006,-0.29983927106857305 c-0.34500000000000036,0 -0.6520000000000006,0.10538905072212221 -0.921,0.3146827993392947 c-0.269,0.2092937486171723 -0.4930000000000002,0.48686772727966354 -0.6720000000000007,0.8297532303333286 c-0.1800000000000001,0.34288550305366533 -0.3160000000000002,0.731785943746567 -0.4090000000000002,1.1667013220787048 C157.719,17.634113461389955 157.673,18.077934956684526 157.673,18.527693863287386 z" id="svg_24"/>
	<path class="st0" d="M169.595,22.752162009134707 c-0.5860000000000004,0.8713151094913486 -1.2690000000000001,1.3062304878234867 -2.049,1.3062304878234867 c-0.4830000000000002,0 -0.936,-0.14398222422599807 -1.361,-0.4304623198509219 c-0.4240000000000002,-0.2864800956249239 -0.794,-0.6813179476261141 -1.107,-1.1830292031764984 c-0.3140000000000002,-0.5017112555503851 -0.5630000000000004,-1.0939680335521702 -0.7460000000000004,-1.7752859811782835 c-0.1830000000000001,-0.6813179476261141 -0.274,-1.4160725970268253 -0.274,-2.2042639482021333 c0,-0.7481138248443604 0.09100000000000011,-1.4516970648765564 0.274,-2.1122340729236604 c0.1830000000000001,-0.6605370080471041 0.4350000000000002,-1.2394346106052403 0.7560000000000004,-1.7366928076744084 c0.3210000000000003,-0.4972581970691686 0.6990000000000007,-0.8920960490703588 1.133,-1.1830292031764984 c0.4350000000000002,-0.29093315410614023 0.908,-0.43788408398628276 1.4180000000000001,-0.43788408398628276 c0.6900000000000007,0 1.282,0.21523115992546096 1.775,0.6456934797763828 c0.4930000000000002,0.4304623198509219 0.8640000000000004,1.0093599224090586 1.113,1.7366928076744084 l-1.066,1.168185674905777 c-0.1860000000000001,-0.5432731347084048 -0.4470000000000003,-0.9574075734615333 -0.782,-1.2438876690864566 c-0.33500000000000035,-0.2864800956249239 -0.6980000000000007,-0.4304623198509219 -1.092,-0.4304623198509219 c-0.3100000000000002,0 -0.5940000000000004,0.09796728658676157 -0.8530000000000004,0.29093315410614023 c-0.259,0.19445022034645087 -0.4800000000000002,0.4616337292194369 -0.6620000000000007,0.7985818209648132 c-0.1840000000000001,0.3384324445724489 -0.3250000000000003,0.7273328852653504 -0.4240000000000002,1.1667013220787048 c-0.1,0.44085278964042696 -0.1500000000000001,0.9069395773410803 -0.1500000000000001,1.39826036310196 c0,0.5121017253398901 0.05500000000000003,0.9915476884841926 0.16600000000000015,1.4368535366058355 c0.11000000000000006,0.44530584812164337 0.262,0.8327219359874727 0.456,1.1607639107704164 c0.19200000000000014,0.32804197478294395 0.4230000000000002,0.5863193666934974 0.6880000000000007,0.776316528558731 c0.265,0.18999716186523447 0.553,0.2849957427978517 0.8640000000000004,0.2849957427978517 c0.7110000000000004,0 1.352,-0.4972581970691686 1.925,-1.4902902383804322 v-0.7674104115962983 h-1.48 v-1.5526330571174622 h2.66 v5.607884980678558 h-1.18 V22.752162009134707 z" id="svg_25"/>
	<path class="st0" d="M171.997,23.98120614995044 v-10.90702457332611 h1.428 v10.90702457332611 H171.997 z" id="svg_26"/>
	<path class="st0" d="M180.059,22.122796410456118 v1.858409739494324 h-5.102 v-10.90702457332611 h5.009 v1.858409739494324 h-3.581 v2.6273045039176943 h3.095 v1.7203649265766143 h-3.095 v2.842535663843155 H180.059 z" id="svg_27"/>
	<path class="st0" d="M185.4,15.931560768738203 c-0.04800000000000003,-0.07124893569946289 -0.136,-0.1692162222862245 -0.264,-0.29241750693321245 c-0.127,-0.12320128464698801 -0.2830000000000002,-0.24343386363983172 -0.465,-0.36069773697853097 c-0.1830000000000001,-0.11726387333869945 -0.3810000000000002,-0.2167155127525331 -0.5950000000000004,-0.29983927106857305 c-0.2140000000000001,-0.08163940548896793 -0.4310000000000002,-0.12320128464698801 -0.6520000000000006,-0.12320128464698801 c-0.39400000000000035,0 -0.6870000000000007,0.10835775637626652 -0.8800000000000004,0.3235889163017275 c-0.19300000000000014,0.21523115992546096 -0.2900000000000002,0.5165547838211063 -0.2900000000000002,0.9069395773410803 c0,0.2256216297149659 0.03700000000000001,0.412650085926056 0.10900000000000006,0.5610853686332706 s0.1770000000000001,0.27905833148956316 0.3150000000000002,0.391869146347046 c0.138,0.11281081485748297 0.3120000000000002,0.21523115992546096 0.523,0.30726103520393383 c0.2100000000000001,0.09202987527847299 0.454,0.18999716186523447 0.7300000000000004,0.29093315410614023 c0.3590000000000002,0.14398222422599807 0.6850000000000007,0.29835491824150095 0.978,0.4616337292194369 c0.2930000000000002,0.16476316380500805 0.542,0.36811950111389186 0.7450000000000004,0.6145220704078677 c0.20400000000000001,0.24640256929397597 0.3610000000000002,0.5403044290542605 0.4710000000000002,0.8831899321079258 c0.11100000000000006,0.34288550305366533 0.16600000000000015,0.7659260587692261 0.16600000000000015,1.2676373143196111 c0,0.5833506610393526 -0.07400000000000002,1.0835775637626652 -0.22200000000000014,1.4977120025157926 c-0.1490000000000001,0.41413443875312805 -0.34900000000000037,0.7495981776714327 -0.6010000000000004,1.0063912167549143 c-0.252,0.2567930390834808 -0.542,0.4438214952945713 -0.8690000000000004,0.5610853686332706 c-0.3280000000000003,0.11726387333869945 -0.6710000000000007,0.1766379864215852 -1.029,0.1766379864215852 c-0.552,0 -1.098,-0.12320128464698801 -1.6360000000000001,-0.36811950111389186 c-0.538,-0.24640256929397597 -1.021,-0.5937411308288577 -1.449,-1.0449843902587894 l0.6320000000000005,-1.8287226829528809 c0.06200000000000005,0.09202987527847299 0.17400000000000004,0.21226245427131665 0.33600000000000035,0.36069773697853097 c0.16200000000000014,0.14843528270721446 0.3540000000000002,0.29835491824150095 0.5750000000000004,0.44530584812164337 c0.2210000000000001,0.14843528270721446 0.465,0.27460527300834675 0.7350000000000004,0.37702561807632445 c0.269,0.102420345067978 0.545,0.15288834118843087 0.8280000000000004,0.15288834118843087 c0.786,0 1.18,-0.37405691242218025 1.18,-1.122170737266541 c0,-0.23601209950447097 -0.04500000000000004,-0.43491537833213834 -0.135,-0.5996785421371461 c-0.0900000000000001,-0.16327881097793587 -0.2170000000000001,-0.30726103520393383 -0.3820000000000003,-0.4304623198509219 c-0.16600000000000015,-0.12320128464698801 -0.3660000000000002,-0.23601209950447097 -0.6010000000000004,-0.3384324445724489 c-0.23500000000000001,-0.102420345067978 -0.4970000000000002,-0.21523115992546096 -0.787,-0.3384324445724489 c-0.3520000000000002,-0.14398222422599807 -0.6570000000000007,-0.29983927106857305 -0.916,-0.4690554933547977 s-0.4740000000000002,-0.36811950111389186 -0.6460000000000006,-0.5996785421371461 c-0.17300000000000001,-0.2300746881961824 -0.3030000000000002,-0.49577384424209636 -0.3890000000000003,-0.7985818209648132 s-0.129,-0.6635057137012484 -0.129,-1.0835775637626652 c0,-0.5536636044979096 0.06900000000000008,-1.0449843902587894 0.2070000000000001,-1.4754467101097106 c0.138,-0.4304623198509219 0.3290000000000003,-0.7881913511753084 0.5750000000000004,-1.0761557996273046 c0.2440000000000001,-0.2864800956249239 0.529,-0.5046799612045294 0.8530000000000004,-0.6531152439117435 c0.3250000000000003,-0.14843528270721446 0.6730000000000007,-0.22265292406082168 1.046,-0.22265292406082168 c0.517,0 0.994,0.12023257899284369 1.429,0.36069773697853097 c0.4340000000000002,0.2404651579856874 0.8140000000000004,0.5254609007835389 1.138,0.8520185227394108 L185.4,15.931560768738203 z" id="svg_28"/>
	<path class="st0" d="M37.735,28.567856385603363 h0.4320000000000002 l2.161,7.717150347948074 h-0.542 l-0.6740000000000007,-2.4135576968193058 h-2.3360000000000003 L36.108000000000004,36.28649108637851 h-0.549 L37.735,28.567856385603363 zM38.994,33.27473920024913 L37.947,29.45846808184665 l-1.062,3.816271118402481 H38.994 z" id="svg_29"/>
	<path class="st0" d="M42.429,36.39484884275478 c-0.264,0 -0.508,-0.08163940548896793 -0.7320000000000004,-0.24343386363983172 c-0.22500000000000014,-0.16327881097793587 -0.4180000000000002,-0.37850997090339666 -0.5790000000000004,-0.648662185430527 c-0.16100000000000014,-0.26718350887298603 -0.2870000000000002,-0.5774132497310639 -0.3770000000000002,-0.9292048697471622 c-0.09100000000000011,-0.35179162001609804 -0.136,-0.7199111211299899 -0.136,-1.1028741505146031 c0,-0.39780655765533457 0.04400000000000004,-0.776316528558731 0.132,-1.1355299127101903 c0.08700000000000008,-0.35921338415145887 0.2080000000000001,-0.6724118306636813 0.3620000000000002,-0.9395953395366674 c0.1540000000000001,-0.2686678617000582 0.33700000000000035,-0.47944596314430277 0.55,-0.6367873628139499 c0.2120000000000001,-0.15585704684257518 0.4450000000000003,-0.23304339385032674 0.6990000000000007,-0.23304339385032674 c0.3220000000000003,0 0.6080000000000004,0.1261699903011323 0.8570000000000004,0.37405691242218025 c0.2490000000000001,0.25085562777519244 0.4440000000000003,0.5536636044979096 0.5860000000000004,0.9084239301681525 v-3.4570577342510225 h0.4980000000000002 v6.977942640066147 c0,0.2033563373088837 0.05900000000000004,0.3042923295497895 0.1760000000000001,0.3042923295497895 v0.6531152439117435 c-0.07300000000000002,0.022265292406082167 -0.132,0.032655762195587204 -0.1760000000000001,0.032655762195587204 c-0.11700000000000008,0 -0.2200000000000001,-0.0564054074287415 -0.3080000000000002,-0.1677318694591523 c-0.08800000000000008,-0.11281081485748297 -0.132,-0.24788692212104818 -0.132,-0.4081970274448395 V35.18806999434513 c-0.1510000000000001,0.3696038539409639 -0.3560000000000002,0.6635057137012484 -0.6150000000000004,0.8817055792808538 C42.975,36.28649108637851 42.707,36.39484884275478 42.429,36.39484884275478 zM42.539,35.741733598843034 c0.12200000000000005,0 0.252,-0.03562446784973147 0.3910000000000003,-0.10835775637626652 c0.139,-0.07124893569946289 0.27,-0.1721849279403687 0.3920000000000003,-0.29835491824150095 c0.12200000000000005,-0.12765434312820442 0.22600000000000015,-0.27460527300834675 0.3110000000000002,-0.44530584812164337 c0.08600000000000008,-0.17070057511329662 0.138,-0.3532759728431703 0.1580000000000001,-0.5492105460166934 v-1.7515363359451293 c-0.04900000000000003,-0.19593457317352297 -0.11900000000000008,-0.37702561807632445 -0.2120000000000001,-0.5492105460166934 c-0.09300000000000011,-0.17070057511329662 -0.19900000000000018,-0.32062021064758317 -0.3190000000000003,-0.4512432594299318 c-0.12000000000000002,-0.13062304878234873 -0.2480000000000001,-0.23304339385032674 -0.3850000000000003,-0.3042923295497895 c-0.137,-0.0727332885265351 -0.271,-0.10835775637626652 -0.402,-0.10835775637626652 c-0.20500000000000004,0 -0.3910000000000003,0.06531152439117438 -0.557,0.19593457317352297 c-0.16600000000000015,0.13062304878234873 -0.3090000000000002,0.30280797672271736 -0.4280000000000002,0.5165547838211063 c-0.12000000000000002,0.21374680709838875 -0.2110000000000001,0.4586650235652926 -0.275,0.7332702965736394 c-0.06300000000000006,0.2760896258354189 -0.09500000000000011,0.5596010158061986 -0.09500000000000011,0.8490498170852667 c0,0.3042923295497895 0.03700000000000001,0.5937411308288577 0.11000000000000006,0.8698307566642768 c0.07300000000000002,0.27460527300834675 0.17300000000000001,0.5165547838211063 0.3000000000000002,0.7228798267841343 c0.127,0.20632504296302798 0.277,0.37108820676803594 0.45,0.4942894914150243 C42.152,35.682359485760145 42.338,35.741733598843034 42.539,35.741733598843034 z" id="svg_30"/>
	<path class="st0" d="M46.559000000000005,36.28649108637851 l-1.552,-5.6642903881072995 h0.512 l1.311,4.97851938199997 l1.318,-4.97851938199997 h0.4830000000000002 L47.079,36.28649108637851 H46.559000000000005 z" id="svg_31"/>
	<path class="st0" d="M50.184000000000005,36.39484884275478 c-0.1810000000000001,0 -0.34800000000000036,-0.04453058481216434 -0.501,-0.13507610726356517 c-0.1540000000000001,-0.09202987527847299 -0.2880000000000002,-0.2167155127525331 -0.403,-0.3755412652492524 c-0.11500000000000007,-0.15882575249671943 -0.20400000000000001,-0.34585420870780964 -0.267,-0.5596010158061986 c-0.06400000000000006,-0.21374680709838875 -0.09500000000000011,-0.4438214952945713 -0.09500000000000011,-0.690224064588547 c0,-0.24640256929397597 0.03900000000000003,-0.47499290466308625 0.11700000000000008,-0.6857710061073305 c0.07800000000000006,-0.2092937486171723 0.1880000000000001,-0.391869146347046 0.3290000000000003,-0.5432731347084048 c0.14200000000000004,-0.15288834118843087 0.3100000000000002,-0.27015221452713023 0.506,-0.3532759728431703 c0.19500000000000015,-0.08460811114311223 0.4100000000000002,-0.1261699903011323 0.6440000000000005,-0.1261699903011323 c0.19500000000000015,0 0.3930000000000003,0.026718350887298608 0.5930000000000004,0.0757019941806794 c0.2,0.05195234894752505 0.3780000000000002,0.12468563747406014 0.535,0.21819986557960525 V32.70920077313464 c0,-0.5002269027233127 -0.09500000000000011,-0.8965491075515754 -0.2860000000000002,-1.1904509673118593 c-0.19100000000000014,-0.2939018597602846 -0.454,-0.4393684368133548 -0.791,-0.4393684368133548 c-0.19500000000000015,0 -0.39600000000000035,0.05788976025581363 -0.6000000000000004,0.17366928076744095 c-0.20500000000000004,0.11429516768455514 -0.4130000000000002,0.2835113899707796 -0.6230000000000004,0.5002269027233127 l-0.1760000000000001,-0.48983643293380774 c0.4940000000000002,-0.49280513858795216 0.972,-0.7392077078819276 1.436,-0.7392077078819276 c0.4780000000000002,0 0.8540000000000004,0.1989032788276673 1.1280000000000001,0.5981941893100738 c0.273,0.39780655765533457 0.4100000000000002,0.9499858093261726 0.4100000000000002,1.652084696531296 v2.5545712153911593 c0,0.2033563373088837 0.06100000000000004,0.3042923295497895 0.1830000000000001,0.3042923295497895 v0.6531152439117435 c-0.08300000000000007,0.022265292406082167 -0.1470000000000001,0.032655762195587204 -0.19100000000000014,0.032655762195587204 c-0.127,0 -0.22600000000000015,-0.0460149376392365 -0.2960000000000002,-0.14101351857185376 c-0.07100000000000002,-0.09499858093261729 -0.10900000000000006,-0.22413727688789384 -0.11400000000000007,-0.391869146347046 l-0.015000000000000012,-0.44530584812164337 c-0.1760000000000001,0.341401150226593 -0.39700000000000035,0.6026472477912904 -0.6630000000000007,0.783738292694092 C50.779,36.30430332030338 50.492000000000004,36.39484884275478 50.184000000000005,36.39484884275478 zM50.301,35.82931041564029 c0.259,0 0.4970000000000002,-0.07124893569946289 0.7140000000000004,-0.21819986557960525 c0.2170000000000001,-0.14398222422599807 0.3820000000000003,-0.3369480917453768 0.4940000000000002,-0.5759288969039922 c0.04400000000000004,-0.06531152439117438 0.07700000000000005,-0.13507610726356517 0.09900000000000012,-0.21077810144424444 c0.022000000000000026,-0.0757019941806794 0.03300000000000003,-0.1454665770530702 0.03300000000000003,-0.21077810144424444 V33.68887363900226 c-0.16600000000000015,-0.09499858093261729 -0.33800000000000036,-0.1662475166320802 -0.517,-0.21819986557960525 c-0.1780000000000001,-0.05195234894752505 -0.3600000000000002,-0.0757019941806794 -0.545,-0.0757019941806794 c-0.3520000000000002,0 -0.6370000000000005,0.10835775637626652 -0.8570000000000004,0.32655762195587185 s-0.3300000000000003,0.5031956083774571 -0.3300000000000003,0.8594402868747717 c0,0.17366928076744095 0.023000000000000027,0.3354637389183046 0.07,0.48835208010673553 c0.04700000000000003,0.15288834118843087 0.11000000000000006,0.2864800956249239 0.19100000000000014,0.39780655765533457 s0.1770000000000001,0.20038763165473938 0.2890000000000002,0.2656991560459137 C50.055,35.7966546534447 50.175000000000004,35.82931041564029 50.301,35.82931041564029 z" id="svg_32"/>
	<path class="st0" d="M56.424,36.28649108637851 h-0.4980000000000002 v-3.163155874490738 c0,-0.6738961834907533 -0.06800000000000007,-1.1622482635974887 -0.202,-1.4665405931472781 c-0.135,-0.3042923295497895 -0.34100000000000036,-0.4571806707382205 -0.6190000000000004,-0.4571806707382205 c-0.1460000000000001,0 -0.2930000000000002,0.04007752633094792 -0.4390000000000002,0.12023257899284369 c-0.1470000000000001,0.07867069983482365 -0.2820000000000002,0.19148151469230656 -0.4070000000000002,0.3369480917453768 c-0.125,0.14398222422599807 -0.23600000000000004,0.31765150499343886 -0.33300000000000035,0.5165547838211063 c-0.09800000000000011,0.1989032788276673 -0.16900000000000018,0.41413443875312805 -0.2120000000000001,0.6456934797763828 V36.28649108637851 h-0.4980000000000002 v-5.6642903881072995 h0.454 v1.2839651954174047 c0.1560000000000001,-0.412650085926056 0.3790000000000002,-0.7481138248443604 0.6700000000000007,-1.0004538054466257 s0.6070000000000004,-0.3799943237304689 0.9480000000000004,-0.3799943237304689 c0.2100000000000001,0 0.3880000000000003,0.05788976025581363 0.535,0.17366928076744095 c0.1460000000000001,0.11726387333869945 0.263,0.27905833148956316 0.3510000000000002,0.48983643293380774 c0.08800000000000008,0.2092937486171723 0.1510000000000001,0.4675711405277254 0.19100000000000014,0.7718634700775147 c0.03900000000000003,0.30280797672271736 0.05900000000000004,0.6397560684680943 0.05900000000000004,1.0093599224090586 V36.28649108637851 z" id="svg_33"/>
	<path class="st0" d="M57.222,33.438018011227065 c0,-0.39780655765533457 0.04600000000000005,-0.7748321757316587 0.139,-1.131076854228974 c0.09300000000000011,-0.35476032567024246 0.22300000000000014,-0.6635057137012484 0.3910000000000003,-0.9292048697471622 c0.16900000000000018,-0.2642148032188418 0.3700000000000002,-0.472024199008942 0.6040000000000004,-0.6249125401973725 c0.234,-0.15288834118843087 0.4940000000000002,-0.22859033536911028 0.777,-0.22859033536911028 c0.3610000000000002,0 0.6760000000000007,0.12171693181991586 0.9450000000000004,0.36366644263267534 c0.268,0.24343386363983172 0.4710000000000002,0.5714758384227757 0.6080000000000004,0.985610277175904 l-0.4830000000000002,0.22859033536911028 c-0.10800000000000005,-0.29093315410614023 -0.258,-0.5180391366481788 -0.451,-0.6798335947990418 c-0.19300000000000014,-0.16327881097793587 -0.4070000000000002,-0.24343386363983172 -0.6410000000000005,-0.24343386363983172 c-0.19600000000000015,0 -0.3770000000000002,0.05788976025581363 -0.546,0.17366928076744095 c-0.16900000000000018,0.11429516768455514 -0.3150000000000002,0.2731209201812746 -0.4390000000000002,0.472024199008942 c-0.125,0.1989032788276673 -0.22200000000000014,0.43639973115921055 -0.2930000000000002,0.7110050041675571 c-0.07100000000000002,0.2760896258354189 -0.10600000000000002,0.5759288969039922 -0.10600000000000002,0.9024865188598636 c0,0.31913585782051096 0.03700000000000001,0.6204594817161563 0.11000000000000006,0.9024865188598636 c0.07300000000000002,0.2835113899707796 0.17300000000000001,0.5269452536106114 0.3000000000000002,0.7332702965736394 c0.127,0.20632504296302798 0.274,0.3696038539409639 0.4430000000000002,0.48983643293380774 c0.16900000000000018,0.12023257899284369 0.34800000000000036,0.17812233924865722 0.539,0.17812233924865722 c0.12200000000000005,0 0.2430000000000001,-0.02523399806022646 0.3620000000000002,-0.0757019941806794 c0.12000000000000002,-0.048983643293380785 0.231,-0.12171693181991586 0.33300000000000035,-0.21077810144424444 c0.10300000000000002,-0.09054552245140086 0.19100000000000014,-0.19445022034645087 0.264,-0.3102297408580782 c0.07300000000000002,-0.11429516768455514 0.125,-0.23898080515861525 0.1530000000000001,-0.36811950111389186 l0.4910000000000002,0.2167155127525331 c-0.05400000000000005,0.2033563373088837 -0.132,0.39038479351997396 -0.234,0.5610853686332706 c-0.10300000000000002,0.1692162222862245 -0.22300000000000014,0.31913585782051096 -0.3620000000000002,0.44530584812164337 c-0.139,0.1261699903011323 -0.2930000000000002,0.22413727688789384 -0.462,0.29241750693321245 c-0.16900000000000018,0.0697645828723908 -0.34300000000000036,0.10390469789505005 -0.523,0.10390469789505005 c-0.278,0 -0.535,-0.07718634700775152 -0.7690000000000005,-0.23304339385032674 c-0.234,-0.15734139966964727 -0.4370000000000002,-0.3696038539409639 -0.6080000000000004,-0.6412404212951663 c-0.171,-0.2716365673542025 -0.3040000000000002,-0.5863193666934974 -0.39900000000000035,-0.9395953395366674 C57.27,34.2247250095753 57.222,33.84324633301776 57.222,33.438018011227065 z" id="svg_34"/>
	<path class="st0" d="M63.117000000000004,36.39484884275478 c-0.278,0 -0.534,-0.07718634700775152 -0.7660000000000005,-0.23304339385032674 c-0.232,-0.15734139966964727 -0.4330000000000002,-0.3696038539409639 -0.6040000000000004,-0.6412404212951663 c-0.171,-0.2716365673542025 -0.3040000000000002,-0.5863193666934974 -0.39900000000000035,-0.9395953395366674 c-0.09500000000000011,-0.35624467849731456 -0.14300000000000004,-0.7362390022277837 -0.14300000000000004,-1.141467324018479 c0,-0.39780655765533457 0.04800000000000003,-0.7733478229045869 0.14300000000000004,-1.1251394429206854 c0.09500000000000011,-0.35179162001609804 0.22700000000000015,-0.6590526552200321 0.39500000000000035,-0.9247518112659461 c0.16900000000000018,-0.2642148032188418 0.3700000000000002,-0.4735085518360141 0.6040000000000004,-0.6308499515056615 c0.234,-0.15585704684257518 0.4880000000000002,-0.23304339385032674 0.7620000000000005,-0.23304339385032674 c0.278,0 0.533,0.07718634700775152 0.7650000000000005,0.23304339385032674 c0.232,0.15734139966964727 0.4310000000000002,0.36811950111389186 0.5970000000000004,0.6367873628139499 c0.16600000000000015,0.26718350887298603 0.2950000000000002,0.5759288969039922 0.3880000000000003,0.9232674584388739 c0.09300000000000011,0.34733856153488185 0.139,0.7184267683029175 0.139,1.1088115618228918 c0,0.05788976025581363 0,0.11726387333869945 0,0.17366928076744095 c0,0.05788976025581363 -0.003000000000000004,0.09796728658676157 -0.007000000000000008,0.12023257899284369 h-3.266 c0.015000000000000012,0.3042923295497895 0.06200000000000005,0.5863193666934974 0.14300000000000004,0.841628052949906 c0.08100000000000006,0.2582773919105531 0.1840000000000001,0.47944596314430277 0.3110000000000002,0.6679587721824647 c0.127,0.18999716186523447 0.272,0.3354637389183046 0.4350000000000002,0.44085278964042696 c0.16400000000000015,0.10390469789505005 0.33800000000000036,0.15734139966964727 0.524,0.15734139966964727 c0.12200000000000005,0 0.2440000000000001,-0.02523399806022646 0.3660000000000002,-0.0757019941806794 c0.12200000000000005,-0.048983643293380785 0.234,-0.12023257899284369 0.33700000000000035,-0.20632504296302798 s0.19500000000000015,-0.19296586751937872 0.278,-0.32062021064758317 c0.08300000000000007,-0.12765434312820442 0.1460000000000001,-0.26718350887298603 0.1900000000000001,-0.41858749723434485 l0.4320000000000002,0.1721849279403687 c-0.05900000000000004,0.21077810144424444 -0.14200000000000004,0.4007752633094789 -0.2490000000000001,0.5714758384227757 c-0.10700000000000005,0.1692162222862245 -0.232,0.31913585782051096 -0.3730000000000002,0.44530584812164337 c-0.14200000000000004,0.1261699903011323 -0.2980000000000002,0.22413727688789384 -0.4690000000000002,0.29241750693321245 C63.481,36.36070872773212 63.303000000000004,36.39484884275478 63.117000000000004,36.39484884275478 zM64.523,33.15599097408336 c-0.015000000000000012,-0.3042923295497895 -0.06200000000000005,-0.5803819553852084 -0.14300000000000004,-0.8312375831604004 c-0.08100000000000006,-0.25085562777519244 -0.1830000000000001,-0.4660867877006534 -0.3070000000000002,-0.6456934797763828 c-0.125,-0.1810910449028016 -0.269,-0.3235889163017275 -0.4320000000000002,-0.42452490854263336 c-0.16400000000000015,-0.10093599224090584 -0.33800000000000036,-0.15288834118843087 -0.523,-0.15288834118843087 c-0.1860000000000001,0 -0.3620000000000002,0.05195234894752505 -0.528,0.15288834118843087 s-0.3110000000000002,0.24194951081275956 -0.4350000000000002,0.42452490854263336 c-0.125,0.1796066920757294 -0.22500000000000014,0.39780655765533457 -0.3000000000000002,0.6516308910846715 c-0.07600000000000005,0.25530868625640885 -0.12100000000000002,0.5299139592647555 -0.136,0.8267845246791843 H64.523 z" id="svg_35"/>
	<path class="st0" d="M67.33500000000001,36.39484884275478 c-0.264,0 -0.508,-0.08163940548896793 -0.7320000000000004,-0.24343386363983172 c-0.22500000000000014,-0.16327881097793587 -0.4180000000000002,-0.37850997090339666 -0.5790000000000004,-0.648662185430527 c-0.16100000000000014,-0.26718350887298603 -0.2870000000000002,-0.5774132497310639 -0.3770000000000002,-0.9292048697471622 c-0.09100000000000011,-0.35179162001609804 -0.136,-0.7199111211299899 -0.136,-1.1028741505146031 c0,-0.39780655765533457 0.04400000000000004,-0.776316528558731 0.132,-1.1355299127101903 c0.08700000000000008,-0.35921338415145887 0.2080000000000001,-0.6724118306636813 0.3620000000000002,-0.9395953395366674 c0.1540000000000001,-0.2686678617000582 0.33700000000000035,-0.47944596314430277 0.55,-0.6367873628139499 c0.2120000000000001,-0.15585704684257518 0.4450000000000003,-0.23304339385032674 0.6990000000000007,-0.23304339385032674 c0.3220000000000003,0 0.6080000000000004,0.1261699903011323 0.8570000000000004,0.37405691242218025 c0.2490000000000001,0.25085562777519244 0.4440000000000003,0.5536636044979096 0.5860000000000004,0.9084239301681525 v-3.4570577342510225 h0.4980000000000002 v6.977942640066147 c0,0.2033563373088837 0.05900000000000004,0.3042923295497895 0.1760000000000001,0.3042923295497895 v0.6531152439117435 c-0.07300000000000002,0.022265292406082167 -0.132,0.032655762195587204 -0.1760000000000001,0.032655762195587204 c-0.11700000000000008,0 -0.2200000000000001,-0.0564054074287415 -0.3080000000000002,-0.1677318694591523 c-0.08800000000000008,-0.11281081485748297 -0.132,-0.24788692212104818 -0.132,-0.4081970274448395 V35.18806999434513 c-0.1510000000000001,0.3696038539409639 -0.3560000000000002,0.6635057137012484 -0.6150000000000004,0.8817055792808538 C67.882,36.28649108637851 67.613,36.39484884275478 67.33500000000001,36.39484884275478 zM67.44500000000001,35.741733598843034 c0.12200000000000005,0 0.252,-0.03562446784973147 0.3910000000000003,-0.10835775637626652 c0.139,-0.07124893569946289 0.27,-0.1721849279403687 0.3920000000000003,-0.29835491824150095 c0.12200000000000005,-0.12765434312820442 0.22600000000000015,-0.27460527300834675 0.3110000000000002,-0.44530584812164337 c0.08600000000000008,-0.17070057511329662 0.138,-0.3532759728431703 0.1580000000000001,-0.5492105460166934 v-1.7515363359451293 c-0.04900000000000003,-0.19593457317352297 -0.11900000000000008,-0.37702561807632445 -0.2120000000000001,-0.5492105460166934 c-0.09300000000000011,-0.17070057511329662 -0.19900000000000018,-0.32062021064758317 -0.3190000000000003,-0.4512432594299318 c-0.12000000000000002,-0.13062304878234873 -0.2480000000000001,-0.23304339385032674 -0.3850000000000003,-0.3042923295497895 c-0.137,-0.0727332885265351 -0.271,-0.10835775637626652 -0.402,-0.10835775637626652 c-0.20500000000000004,0 -0.3910000000000003,0.06531152439117438 -0.557,0.19593457317352297 c-0.16600000000000015,0.13062304878234873 -0.3090000000000002,0.30280797672271736 -0.4280000000000002,0.5165547838211063 c-0.12000000000000002,0.21374680709838875 -0.2110000000000001,0.4586650235652926 -0.275,0.7332702965736394 c-0.06300000000000006,0.2760896258354189 -0.09500000000000011,0.5596010158061986 -0.09500000000000011,0.8490498170852667 c0,0.3042923295497895 0.03700000000000001,0.5937411308288577 0.11000000000000006,0.8698307566642768 c0.07300000000000002,0.27460527300834675 0.17300000000000001,0.5165547838211063 0.3000000000000002,0.7228798267841343 c0.127,0.20632504296302798 0.277,0.37108820676803594 0.45,0.4942894914150243 C67.058,35.682359485760145 67.245,35.741733598843034 67.44500000000001,35.741733598843034 z" id="svg_36"/>
	<path class="st0" d="M76.20400000000001,34.29745829810184 c0,0.2894488012790683 -0.03900000000000003,0.5566323101520539 -0.11700000000000008,0.7985818209648132 c-0.07800000000000006,0.24194951081275956 -0.1830000000000001,0.4527276122570041 -0.3150000000000002,0.6308499515056615 c-0.132,0.1766379864215852 -0.2860000000000002,0.3146827993392947 -0.462,0.412650085926056 c-0.1760000000000001,0.09796728658676157 -0.3640000000000002,0.1454665770530702 -0.5640000000000004,0.1454665770530702 h-2.454 V28.567856385603363 h2.505 c0.1810000000000001,0 0.34400000000000036,0.05788976025581363 0.4900000000000002,0.17366928076744095 c0.1470000000000001,0.11429516768455514 0.271,0.2656991560459137 0.3740000000000002,0.4512432594299318 s0.1820000000000001,0.3948378520011902 0.23800000000000004,0.6308499515056615 c0.05700000000000003,0.23452774667739884 0.08400000000000007,0.472024199008942 0.08400000000000007,0.7110050041675571 c0,0.391869146347046 -0.06600000000000006,0.7495981776714327 -0.19700000000000015,1.070218388319016 c-0.132,0.3235889163017275 -0.3150000000000002,0.5640540742874148 -0.55,0.7228798267841343 c0.2980000000000002,0.13062304878234873 0.533,0.37405691242218025 0.7070000000000004,0.7288172380924227 C76.117,33.41278401316684 76.20400000000001,33.826918451919965 76.20400000000001,34.29745829810184 zM72.806,29.23136209930461 v2.8484730751514435 h1.787 c0.127,0 0.2450000000000001,-0.04007752633094792 0.3550000000000002,-0.12023257899284369 c0.11000000000000006,-0.08015505266189582 0.20400000000000001,-0.18554410338401794 0.2820000000000002,-0.3146827993392947 c0.07800000000000006,-0.13062304878234873 0.139,-0.2805426843166353 0.1830000000000001,-0.4527276122570041 c0.04400000000000004,-0.1692162222862245 0.06600000000000006,-0.35030726718902605 0.06600000000000006,-0.5373357234001161 c0,-0.19593457317352297 -0.021000000000000015,-0.3799943237304689 -0.06200000000000005,-0.555147957324982 c-0.04100000000000003,-0.17366928076744095 -0.1,-0.3235889163017275 -0.1760000000000001,-0.4512432594299318 c-0.07600000000000005,-0.12765434312820442 -0.16500000000000015,-0.22859033536911028 -0.267,-0.3042923295497895 c-0.10200000000000002,-0.0757019941806794 -0.2150000000000001,-0.11281081485748297 -0.33700000000000035,-0.11281081485748297 H72.806 zM75.691,34.16683524931948 c0,-0.18851280903816225 -0.022000000000000026,-0.37108820676803594 -0.06600000000000006,-0.5506948988437657 c-0.04400000000000004,-0.1766379864215852 -0.10600000000000002,-0.33249503326416036 -0.1870000000000001,-0.4660867877006534 c-0.08100000000000006,-0.13507610726356517 -0.1760000000000001,-0.24343386363983172 -0.2860000000000002,-0.32655762195587185 c-0.11000000000000006,-0.08460811114311223 -0.22800000000000015,-0.1261699903011323 -0.3550000000000002,-0.1261699903011323 h-1.992 v2.9241750693321227 h1.941 c0.132,0 0.255,-0.038593173503875776 0.3700000000000002,-0.12023257899284369 c0.11500000000000007,-0.07867069983482365 0.2150000000000001,-0.18702845621109015 0.3000000000000002,-0.32062021064758317 s0.1520000000000001,-0.29093315410614023 0.201,-0.4675711405277254 C75.667,34.53792345608752 75.691,34.355348058357656 75.691,34.16683524931948 z" id="svg_37"/>
	<path class="st0" d="M78.262,36.39484884275478 c-0.4150000000000002,0 -0.7240000000000004,-0.20484069013595585 -0.926,-0.6130377175807957 c-0.203,-0.4096813802719117 -0.3040000000000002,-1.0212347450256356 -0.3040000000000002,-1.8316913886070254 v-3.3264346854686737 h0.4980000000000002 v3.195811636686325 c0,1.2824808425903325 0.2950000000000002,1.9237212638854984 0.8860000000000005,1.9237212638854984 c0.1470000000000001,0 0.2900000000000002,-0.03562446784973147 0.4320000000000002,-0.10835775637626652 c0.14100000000000001,-0.07124893569946289 0.272,-0.1766379864215852 0.3910000000000003,-0.3146827993392947 c0.12000000000000002,-0.13656046009063735 0.22700000000000015,-0.29983927106857305 0.3220000000000003,-0.48835208010673553 c0.09500000000000011,-0.18999716186523447 0.17200000000000001,-0.40225961613655087 0.231,-0.6412404212951663 v-3.565415490627289 h0.4980000000000002 v4.706882814645767 c0,0.2033563373088837 0.05900000000000004,0.3042923295497895 0.1760000000000001,0.3042923295497895 v0.6531152439117435 c-0.05900000000000004,0.013359175443649304 -0.10600000000000002,0.022265292406082167 -0.14300000000000004,0.022265292406082167 s-0.06200000000000005,0 -0.07700000000000005,0 c-0.11700000000000008,-0.007421764135360723 -0.2120000000000001,-0.06828023004531868 -0.2860000000000002,-0.18554410338401794 c-0.07300000000000002,-0.11429516768455514 -0.11000000000000006,-0.2716365673542025 -0.11000000000000006,-0.4675711405277254 v-0.6531152439117435 c-0.16600000000000015,0.442337142467499 -0.3910000000000003,0.7852226455211638 -0.6770000000000007,1.0286565091609965 C78.888,36.273131910934865 78.584,36.39484884275478 78.262,36.39484884275478 z" id="svg_38"/>
	<path class="st0" d="M82.685,36.39484884275478 c-0.2980000000000002,0 -0.5880000000000004,-0.0727332885265351 -0.8710000000000004,-0.21819986557960525 c-0.2830000000000002,-0.14398222422599807 -0.527,-0.35476032567024246 -0.7320000000000004,-0.6308499515056615 l0.22700000000000015,-0.5002269027233127 c0.2150000000000001,0.26124609756469735 0.4330000000000002,0.4571806707382205 0.6550000000000006,0.5878037195205694 c0.22200000000000014,0.13062304878234873 0.46,0.19593457317352297 0.7140000000000004,0.19593457317352297 c0.3080000000000002,0 0.553,-0.09202987527847299 0.7360000000000004,-0.2760896258354189 c0.1830000000000001,-0.18554410338401794 0.275,-0.44679020094871547 0.275,-0.7881913511753084 c0,-0.16031010532379159 -0.02500000000000002,-0.29241750693321245 -0.07300000000000002,-0.39780655765533457 c-0.04900000000000003,-0.10390469789505005 -0.12100000000000002,-0.19741892600059516 -0.2160000000000001,-0.2760896258354189 c-0.09500000000000011,-0.07867069983482365 -0.2150000000000001,-0.15140398836135874 -0.3590000000000002,-0.21226245427131665 c-0.14400000000000004,-0.06085846590995794 -0.3110000000000002,-0.12468563747406014 -0.502,-0.18999716186523447 c-0.2200000000000001,-0.07867069983482365 -0.4100000000000002,-0.16031010532379159 -0.5710000000000004,-0.23898080515861525 c-0.16100000000000014,-0.07867069983482365 -0.2940000000000002,-0.17070057511329662 -0.39900000000000035,-0.2716365673542025 c-0.10500000000000002,-0.10093599224090584 -0.1830000000000001,-0.22710598254203818 -0.234,-0.37405691242218025 c-0.05100000000000004,-0.14843528270721446 -0.07700000000000005,-0.3354637389183046 -0.07700000000000005,-0.5610853686332706 c0,-0.2805426843166353 0.03800000000000001,-0.5313983120918276 0.11300000000000006,-0.7495981776714327 c0.07600000000000005,-0.21819986557960525 0.1780000000000001,-0.39780655765533457 0.3080000000000002,-0.5388200762271885 c0.129,-0.14101351857185376 0.281,-0.24640256929397597 0.454,-0.32062021064758317 c0.17300000000000001,-0.0727332885265351 0.3570000000000002,-0.10835775637626652 0.553,-0.10835775637626652 c0.2930000000000002,0 0.559,0.07124893569946289 0.798,0.21077810144424444 c0.2390000000000001,0.14101351857185376 0.4320000000000002,0.3295263276100161 0.5790000000000004,0.5610853686332706 l-0.2420000000000001,0.43491537833213834 c-0.14200000000000004,-0.21819986557960525 -0.3140000000000002,-0.3799943237304689 -0.517,-0.48983643293380774 s-0.4130000000000002,-0.16327881097793587 -0.6330000000000005,-0.16327881097793587 c-0.132,0 -0.254,0.020780939579010022 -0.3660000000000002,0.05937411308288579 c-0.11200000000000006,0.04007752633094792 -0.2110000000000001,0.10390469789505005 -0.2960000000000002,0.19148151469230656 c-0.08600000000000008,0.08757681679725653 -0.1530000000000001,0.19741892600059516 -0.202,0.33101068043708826 c-0.04900000000000003,0.13507610726356517 -0.07300000000000002,0.29241750693321245 -0.07300000000000002,0.472024199008942 c0,0.15288834118843087 0.017000000000000015,0.2760896258354189 0.05100000000000004,0.3696038539409639 c0.03400000000000003,0.09499858093261729 0.09100000000000011,0.17515363359451303 0.16900000000000018,0.2449182164669039 c0.07800000000000006,0.06828023004531868 0.1770000000000001,0.13062304878234873 0.2970000000000002,0.18554410338401794 c0.11900000000000008,0.054921054601669336 0.264,0.10984210920333866 0.4350000000000002,0.1677318694591523 c0.2440000000000001,0.08757681679725653 0.459,0.17366928076744095 0.6440000000000005,0.26124609756469735 c0.1860000000000001,0.08757681679725653 0.34100000000000036,0.18851280903816225 0.465,0.3042923295497895 s0.2180000000000001,0.2582773919105531 0.2820000000000002,0.42452490854263336 c0.06300000000000006,0.1662475166320802 0.09500000000000011,0.3696038539409639 0.09500000000000011,0.6085846590995792 c0,0.5210078423023226 -0.134,0.9336579282283789 -0.402,1.2379502577781683 C83.5,36.241960501566346 83.139,36.39484884275478 82.685,36.39484884275478 z" id="svg_39"/>
	<path class="st0" d="M84.984,29.437687142267638 v-1.0865462694168095 h0.4980000000000002 v1.0865462694168095 H84.984 zM84.984,36.28649108637851 v-5.6642903881072995 h0.4980000000000002 V36.28649108637851 H84.984 z" id="svg_40"/>
	<path class="st0" d="M89.788,36.28649108637851 h-0.4980000000000002 v-3.163155874490738 c0,-0.6738961834907533 -0.06800000000000007,-1.1622482635974887 -0.202,-1.4665405931472781 c-0.135,-0.3042923295497895 -0.34100000000000036,-0.4571806707382205 -0.6190000000000004,-0.4571806707382205 c-0.1460000000000001,0 -0.2930000000000002,0.04007752633094792 -0.4390000000000002,0.12023257899284369 c-0.1470000000000001,0.07867069983482365 -0.2820000000000002,0.19148151469230656 -0.4070000000000002,0.3369480917453768 c-0.125,0.14398222422599807 -0.23600000000000004,0.31765150499343886 -0.33300000000000035,0.5165547838211063 c-0.09800000000000011,0.1989032788276673 -0.16900000000000018,0.41413443875312805 -0.2120000000000001,0.6456934797763828 V36.28649108637851 h-0.4980000000000002 v-5.6642903881072995 h0.454 v1.2839651954174047 c0.1560000000000001,-0.412650085926056 0.3790000000000002,-0.7481138248443604 0.6700000000000007,-1.0004538054466257 c0.2900000000000002,-0.25382433342933663 0.6070000000000004,-0.3799943237304689 0.9480000000000004,-0.3799943237304689 c0.2100000000000001,0 0.3880000000000003,0.05788976025581363 0.535,0.17366928076744095 c0.1460000000000001,0.11726387333869945 0.263,0.27905833148956316 0.3510000000000002,0.48983643293380774 s0.1510000000000001,0.4675711405277254 0.19100000000000014,0.7718634700775147 c0.03900000000000003,0.30280797672271736 0.05900000000000004,0.6397560684680943 0.05900000000000004,1.0093599224090586 V36.28649108637851 z" id="svg_41"/>
	<path class="st0" d="M92.498,36.39484884275478 c-0.278,0 -0.534,-0.07718634700775152 -0.7660000000000005,-0.23304339385032674 c-0.232,-0.15734139966964727 -0.4330000000000002,-0.3696038539409639 -0.6040000000000004,-0.6412404212951663 c-0.171,-0.2716365673542025 -0.3040000000000002,-0.5863193666934974 -0.39900000000000035,-0.9395953395366674 c-0.09500000000000011,-0.35624467849731456 -0.14300000000000004,-0.7362390022277837 -0.14300000000000004,-1.141467324018479 c0,-0.39780655765533457 0.04800000000000003,-0.7733478229045869 0.14300000000000004,-1.1251394429206854 c0.09500000000000011,-0.35179162001609804 0.22700000000000015,-0.6590526552200321 0.39500000000000035,-0.9247518112659461 c0.16900000000000018,-0.2642148032188418 0.3700000000000002,-0.4735085518360141 0.6040000000000004,-0.6308499515056615 c0.234,-0.15585704684257518 0.4880000000000002,-0.23304339385032674 0.7620000000000005,-0.23304339385032674 c0.278,0 0.533,0.07718634700775152 0.7650000000000005,0.23304339385032674 c0.232,0.15734139966964727 0.4310000000000002,0.36811950111389186 0.5970000000000004,0.6367873628139499 c0.16600000000000015,0.26718350887298603 0.2950000000000002,0.5759288969039922 0.3880000000000003,0.9232674584388739 c0.09300000000000011,0.34733856153488185 0.139,0.7184267683029175 0.139,1.1088115618228918 c0,0.05788976025581363 0,0.11726387333869945 0,0.17366928076744095 c0,0.05788976025581363 -0.003000000000000004,0.09796728658676157 -0.007000000000000008,0.12023257899284369 h-3.266 c0.015000000000000012,0.3042923295497895 0.06200000000000005,0.5863193666934974 0.14300000000000004,0.841628052949906 c0.08100000000000006,0.2582773919105531 0.1840000000000001,0.47944596314430277 0.3110000000000002,0.6679587721824647 c0.127,0.18999716186523447 0.272,0.3354637389183046 0.4350000000000002,0.44085278964042696 c0.16400000000000015,0.10390469789505005 0.33800000000000036,0.15734139966964727 0.524,0.15734139966964727 c0.12200000000000005,0 0.2440000000000001,-0.02523399806022646 0.3660000000000002,-0.0757019941806794 c0.12200000000000005,-0.048983643293380785 0.234,-0.12023257899284369 0.33700000000000035,-0.20632504296302798 s0.19500000000000015,-0.19296586751937872 0.278,-0.32062021064758317 c0.08300000000000007,-0.12765434312820442 0.1460000000000001,-0.26718350887298603 0.1900000000000001,-0.41858749723434485 l0.4320000000000002,0.1721849279403687 c-0.05900000000000004,0.21077810144424444 -0.14200000000000004,0.4007752633094789 -0.2490000000000001,0.5714758384227757 c-0.10700000000000005,0.1692162222862245 -0.232,0.31913585782051096 -0.3730000000000002,0.44530584812164337 c-0.14200000000000004,0.1261699903011323 -0.2980000000000002,0.22413727688789384 -0.4690000000000002,0.29241750693321245 C92.861,36.36070872773212 92.683,36.39484884275478 92.498,36.39484884275478 zM93.904,33.15599097408336 c-0.015000000000000012,-0.3042923295497895 -0.06200000000000005,-0.5803819553852084 -0.14300000000000004,-0.8312375831604004 c-0.08100000000000006,-0.25085562777519244 -0.1830000000000001,-0.4660867877006534 -0.3070000000000002,-0.6456934797763828 c-0.125,-0.1810910449028016 -0.269,-0.3235889163017275 -0.4320000000000002,-0.42452490854263336 s-0.33800000000000036,-0.15288834118843087 -0.523,-0.15288834118843087 c-0.1860000000000001,0 -0.3620000000000002,0.05195234894752505 -0.528,0.15288834118843087 c-0.16600000000000015,0.10093599224090584 -0.3110000000000002,0.24194951081275956 -0.4350000000000002,0.42452490854263336 c-0.125,0.1796066920757294 -0.22500000000000014,0.39780655765533457 -0.3000000000000002,0.6516308910846715 c-0.07600000000000005,0.25530868625640885 -0.12100000000000002,0.5299139592647555 -0.136,0.8267845246791843 H93.904 z" id="svg_42"/>
	<path class="st0" d="M96.416,36.39484884275478 c-0.2980000000000002,0 -0.5880000000000004,-0.0727332885265351 -0.8710000000000004,-0.21819986557960525 c-0.2830000000000002,-0.14398222422599807 -0.527,-0.35476032567024246 -0.7320000000000004,-0.6308499515056615 l0.22700000000000015,-0.5002269027233127 c0.2150000000000001,0.26124609756469735 0.4330000000000002,0.4571806707382205 0.6550000000000006,0.5878037195205694 c0.22200000000000014,0.13062304878234873 0.46,0.19593457317352297 0.7140000000000004,0.19593457317352297 c0.3080000000000002,0 0.553,-0.09202987527847299 0.7360000000000004,-0.2760896258354189 c0.1830000000000001,-0.18554410338401794 0.275,-0.44679020094871547 0.275,-0.7881913511753084 c0,-0.16031010532379159 -0.02500000000000002,-0.29241750693321245 -0.07300000000000002,-0.39780655765533457 c-0.04900000000000003,-0.10390469789505005 -0.12100000000000002,-0.19741892600059516 -0.2160000000000001,-0.2760896258354189 c-0.09500000000000011,-0.07867069983482365 -0.2150000000000001,-0.15140398836135874 -0.3590000000000002,-0.21226245427131665 c-0.14400000000000004,-0.06085846590995794 -0.3110000000000002,-0.12468563747406014 -0.502,-0.18999716186523447 c-0.2200000000000001,-0.07867069983482365 -0.4100000000000002,-0.16031010532379159 -0.5710000000000004,-0.23898080515861525 c-0.16100000000000014,-0.07867069983482365 -0.2940000000000002,-0.17070057511329662 -0.39900000000000035,-0.2716365673542025 c-0.10500000000000002,-0.10093599224090584 -0.1830000000000001,-0.22710598254203818 -0.234,-0.37405691242218025 c-0.05100000000000004,-0.14843528270721446 -0.07700000000000005,-0.3354637389183046 -0.07700000000000005,-0.5610853686332706 c0,-0.2805426843166353 0.03800000000000001,-0.5313983120918276 0.11300000000000006,-0.7495981776714327 c0.07600000000000005,-0.21819986557960525 0.1780000000000001,-0.39780655765533457 0.3080000000000002,-0.5388200762271885 c0.129,-0.14101351857185376 0.281,-0.24640256929397597 0.454,-0.32062021064758317 c0.17300000000000001,-0.0727332885265351 0.3570000000000002,-0.10835775637626652 0.553,-0.10835775637626652 c0.2930000000000002,0 0.559,0.07124893569946289 0.798,0.21077810144424444 c0.2390000000000001,0.14101351857185376 0.4320000000000002,0.3295263276100161 0.5790000000000004,0.5610853686332706 l-0.2420000000000001,0.43491537833213834 c-0.14200000000000004,-0.21819986557960525 -0.3140000000000002,-0.3799943237304689 -0.517,-0.48983643293380774 s-0.4130000000000002,-0.16327881097793587 -0.6330000000000005,-0.16327881097793587 c-0.132,0 -0.254,0.020780939579010022 -0.3660000000000002,0.05937411308288579 c-0.11200000000000006,0.04007752633094792 -0.2110000000000001,0.10390469789505005 -0.2960000000000002,0.19148151469230656 c-0.08600000000000008,0.08757681679725653 -0.1530000000000001,0.19741892600059516 -0.202,0.33101068043708826 c-0.04900000000000003,0.13507610726356517 -0.07300000000000002,0.29241750693321245 -0.07300000000000002,0.472024199008942 c0,0.15288834118843087 0.017000000000000015,0.2760896258354189 0.05100000000000004,0.3696038539409639 c0.03400000000000003,0.09499858093261729 0.09100000000000011,0.17515363359451303 0.16900000000000018,0.2449182164669039 c0.07800000000000006,0.06828023004531868 0.1770000000000001,0.13062304878234873 0.2970000000000002,0.18554410338401794 c0.11900000000000008,0.054921054601669336 0.264,0.10984210920333866 0.4350000000000002,0.1677318694591523 c0.2440000000000001,0.08757681679725653 0.459,0.17366928076744095 0.6440000000000005,0.26124609756469735 c0.1860000000000001,0.08757681679725653 0.34100000000000036,0.18851280903816225 0.465,0.3042923295497895 c0.125,0.11726387333869945 0.2180000000000001,0.2582773919105531 0.2820000000000002,0.42452490854263336 c0.06300000000000006,0.1662475166320802 0.09500000000000011,0.3696038539409639 0.09500000000000011,0.6085846590995792 c0,0.5210078423023226 -0.134,0.9336579282283789 -0.402,1.2379502577781683 S96.87,36.39484884275478 96.416,36.39484884275478 z" id="svg_43"/>
	<path class="st0" d="M99.982,36.39484884275478 c-0.2980000000000002,0 -0.5880000000000004,-0.0727332885265351 -0.8710000000000004,-0.21819986557960525 c-0.2830000000000002,-0.14398222422599807 -0.527,-0.35476032567024246 -0.7320000000000004,-0.6308499515056615 l0.22700000000000015,-0.5002269027233127 c0.2150000000000001,0.26124609756469735 0.4330000000000002,0.4571806707382205 0.6550000000000006,0.5878037195205694 c0.22200000000000014,0.13062304878234873 0.46,0.19593457317352297 0.7140000000000004,0.19593457317352297 c0.3080000000000002,0 0.553,-0.09202987527847299 0.7360000000000004,-0.2760896258354189 c0.1830000000000001,-0.18554410338401794 0.275,-0.44679020094871547 0.275,-0.7881913511753084 c0,-0.16031010532379159 -0.02500000000000002,-0.29241750693321245 -0.07300000000000002,-0.39780655765533457 c-0.04900000000000003,-0.10390469789505005 -0.12100000000000002,-0.19741892600059516 -0.2160000000000001,-0.2760896258354189 c-0.09500000000000011,-0.07867069983482365 -0.2150000000000001,-0.15140398836135874 -0.3590000000000002,-0.21226245427131665 c-0.14400000000000004,-0.06085846590995794 -0.3110000000000002,-0.12468563747406014 -0.502,-0.18999716186523447 c-0.2200000000000001,-0.07867069983482365 -0.4100000000000002,-0.16031010532379159 -0.5710000000000004,-0.23898080515861525 c-0.16100000000000014,-0.07867069983482365 -0.2940000000000002,-0.17070057511329662 -0.39900000000000035,-0.2716365673542025 c-0.10500000000000002,-0.10093599224090584 -0.1830000000000001,-0.22710598254203818 -0.234,-0.37405691242218025 c-0.05100000000000004,-0.14843528270721446 -0.07700000000000005,-0.3354637389183046 -0.07700000000000005,-0.5610853686332706 c0,-0.2805426843166353 0.03800000000000001,-0.5313983120918276 0.11300000000000006,-0.7495981776714327 c0.07600000000000005,-0.21819986557960525 0.1780000000000001,-0.39780655765533457 0.3080000000000002,-0.5388200762271885 c0.129,-0.14101351857185376 0.281,-0.24640256929397597 0.454,-0.32062021064758317 c0.17300000000000001,-0.0727332885265351 0.3570000000000002,-0.10835775637626652 0.553,-0.10835775637626652 c0.2930000000000002,0 0.559,0.07124893569946289 0.798,0.21077810144424444 c0.2390000000000001,0.14101351857185376 0.4320000000000002,0.3295263276100161 0.5790000000000004,0.5610853686332706 l-0.2420000000000001,0.43491537833213834 c-0.14200000000000004,-0.21819986557960525 -0.3140000000000002,-0.3799943237304689 -0.517,-0.48983643293380774 s-0.4130000000000002,-0.16327881097793587 -0.6330000000000005,-0.16327881097793587 c-0.132,0 -0.254,0.020780939579010022 -0.3660000000000002,0.05937411308288579 c-0.11200000000000006,0.04007752633094792 -0.2110000000000001,0.10390469789505005 -0.2960000000000002,0.19148151469230656 c-0.08600000000000008,0.08757681679725653 -0.1530000000000001,0.19741892600059516 -0.202,0.33101068043708826 c-0.04900000000000003,0.13507610726356517 -0.07300000000000002,0.29241750693321245 -0.07300000000000002,0.472024199008942 c0,0.15288834118843087 0.017000000000000015,0.2760896258354189 0.05100000000000004,0.3696038539409639 c0.03400000000000003,0.09499858093261729 0.09100000000000011,0.17515363359451303 0.16900000000000018,0.2449182164669039 c0.07800000000000006,0.06828023004531868 0.1770000000000001,0.13062304878234873 0.2970000000000002,0.18554410338401794 c0.11900000000000008,0.054921054601669336 0.264,0.10984210920333866 0.4350000000000002,0.1677318694591523 c0.2440000000000001,0.08757681679725653 0.459,0.17366928076744095 0.6440000000000005,0.26124609756469735 c0.1860000000000001,0.08757681679725653 0.34100000000000036,0.18851280903816225 0.465,0.3042923295497895 s0.2180000000000001,0.2582773919105531 0.2820000000000002,0.42452490854263336 c0.06300000000000006,0.1662475166320802 0.09500000000000011,0.3696038539409639 0.09500000000000011,0.6085846590995792 c0,0.5210078423023226 -0.134,0.9336579282283789 -0.402,1.2379502577781683 C100.798,36.241960501566346 100.437,36.39484884275478 99.982,36.39484884275478 z" id="svg_44"/>
	<path class="st0" d="M105.636,28.567856385603363 h0.4320000000000002 l2.161,7.717150347948074 h-0.542 l-0.6740000000000007,-2.4135576968193058 h-2.3360000000000003 l-0.6670000000000007,2.4135576968193058 h-0.549 L105.636,28.567856385603363 zM106.895,33.27473920024913 l-1.047,-3.816271118402481 l-1.062,3.816271118402481 H106.895 z" id="svg_45"/>
	<path class="st0" d="M112.081,36.28649108637851 h-0.4980000000000002 v-3.163155874490738 c0,-0.6738961834907533 -0.06800000000000007,-1.1622482635974887 -0.201,-1.4665405931472781 c-0.135,-0.3042923295497895 -0.34100000000000036,-0.4571806707382205 -0.6190000000000004,-0.4571806707382205 c-0.1460000000000001,0 -0.2930000000000002,0.04007752633094792 -0.4390000000000002,0.12023257899284369 c-0.1470000000000001,0.07867069983482365 -0.2820000000000002,0.19148151469230656 -0.4070000000000002,0.3369480917453768 c-0.125,0.14398222422599807 -0.23600000000000004,0.31765150499343886 -0.33300000000000035,0.5165547838211063 c-0.09800000000000011,0.1989032788276673 -0.16900000000000018,0.41413443875312805 -0.2120000000000001,0.6456934797763828 V36.28649108637851 h-0.4980000000000002 v-5.6642903881072995 h0.454 v1.2839651954174047 c0.1560000000000001,-0.412650085926056 0.3790000000000002,-0.7481138248443604 0.6700000000000007,-1.0004538054466257 s0.6070000000000004,-0.3799943237304689 0.9480000000000004,-0.3799943237304689 c0.2100000000000001,0 0.3880000000000003,0.05788976025581363 0.535,0.17366928076744095 c0.1460000000000001,0.11726387333869945 0.263,0.27905833148956316 0.3510000000000002,0.48983643293380774 s0.1510000000000001,0.4675711405277254 0.19100000000000014,0.7718634700775147 c0.03900000000000003,0.30280797672271736 0.05900000000000004,0.6397560684680943 0.05900000000000004,1.0093599224090586 V36.28649108637851 z" id="svg_46"/>
	<path class="st0" d="M114.101,36.39484884275478 c-0.1810000000000001,0 -0.34800000000000036,-0.04453058481216434 -0.501,-0.13507610726356517 c-0.1540000000000001,-0.09202987527847299 -0.2880000000000002,-0.2167155127525331 -0.403,-0.3755412652492524 c-0.11500000000000007,-0.15882575249671943 -0.20400000000000001,-0.34585420870780964 -0.267,-0.5596010158061986 c-0.06400000000000006,-0.21374680709838875 -0.09500000000000011,-0.4438214952945713 -0.09500000000000011,-0.690224064588547 c0,-0.24640256929397597 0.03900000000000003,-0.47499290466308625 0.11700000000000008,-0.6857710061073305 c0.07800000000000006,-0.2092937486171723 0.1880000000000001,-0.391869146347046 0.3290000000000003,-0.5432731347084048 c0.14200000000000004,-0.15288834118843087 0.3100000000000002,-0.27015221452713023 0.506,-0.3532759728431703 c0.19500000000000015,-0.08460811114311223 0.4100000000000002,-0.1261699903011323 0.6440000000000005,-0.1261699903011323 c0.19500000000000015,0 0.3930000000000003,0.026718350887298608 0.5930000000000004,0.0757019941806794 c0.2,0.05195234894752505 0.3780000000000002,0.12468563747406014 0.535,0.21819986557960525 V32.70920077313464 c0,-0.5002269027233127 -0.09500000000000011,-0.8965491075515754 -0.2860000000000002,-1.1904509673118593 s-0.454,-0.4393684368133548 -0.791,-0.4393684368133548 c-0.19500000000000015,0 -0.39600000000000035,0.05788976025581363 -0.6000000000000004,0.17366928076744095 c-0.20500000000000004,0.11429516768455514 -0.4130000000000002,0.2835113899707796 -0.6230000000000004,0.5002269027233127 l-0.1760000000000001,-0.48983643293380774 c0.4940000000000002,-0.49280513858795216 0.972,-0.7392077078819276 1.436,-0.7392077078819276 c0.4780000000000002,0 0.8540000000000004,0.1989032788276673 1.1280000000000001,0.5981941893100738 c0.273,0.39780655765533457 0.4100000000000002,0.9499858093261726 0.4100000000000002,1.652084696531296 v2.5545712153911593 c0,0.2033563373088837 0.06100000000000004,0.3042923295497895 0.1830000000000001,0.3042923295497895 v0.6531152439117435 c-0.08300000000000007,0.022265292406082167 -0.1470000000000001,0.032655762195587204 -0.19100000000000014,0.032655762195587204 c-0.127,0 -0.22600000000000015,-0.0460149376392365 -0.2960000000000002,-0.14101351857185376 c-0.07100000000000002,-0.09499858093261729 -0.10900000000000006,-0.22413727688789384 -0.11400000000000007,-0.391869146347046 l-0.015000000000000012,-0.44530584812164337 c-0.1760000000000001,0.341401150226593 -0.39700000000000035,0.6026472477912904 -0.6630000000000007,0.783738292694092 C114.696,36.30430332030338 114.409,36.39484884275478 114.101,36.39484884275478 zM114.21900000000001,35.82931041564029 c0.259,0 0.4970000000000002,-0.07124893569946289 0.7140000000000004,-0.21819986557960525 c0.2170000000000001,-0.14398222422599807 0.3820000000000003,-0.3369480917453768 0.4940000000000002,-0.5759288969039922 c0.04400000000000004,-0.06531152439117438 0.07700000000000005,-0.13507610726356517 0.09900000000000012,-0.21077810144424444 c0.022000000000000026,-0.0757019941806794 0.03300000000000003,-0.1454665770530702 0.03300000000000003,-0.21077810144424444 V33.68887363900226 c-0.16600000000000015,-0.09499858093261729 -0.33800000000000036,-0.1662475166320802 -0.517,-0.21819986557960525 c-0.1780000000000001,-0.05195234894752505 -0.3600000000000002,-0.0757019941806794 -0.545,-0.0757019941806794 c-0.3520000000000002,0 -0.6370000000000005,0.10835775637626652 -0.8570000000000004,0.32655762195587185 s-0.3300000000000003,0.5031956083774571 -0.3300000000000003,0.8594402868747717 c0,0.17366928076744095 0.023000000000000027,0.3354637389183046 0.07,0.48835208010673553 c0.04700000000000003,0.15288834118843087 0.11000000000000006,0.2864800956249239 0.19100000000000014,0.39780655765533457 s0.1770000000000001,0.20038763165473938 0.2890000000000002,0.2656991560459137 C113.97200000000001,35.7966546534447 114.092,35.82931041564029 114.21900000000001,35.82931041564029 z" id="svg_47"/>
	<path class="st0" d="M117.155,28.35114087285083 h0.4980000000000002 v6.651385018110275 c0,0.21077810144424444 0.03900000000000003,0.3755412652492524 0.11700000000000008,0.49577384424209636 c0.07800000000000006,0.12023257899284369 0.1880000000000001,0.17812233924865722 0.3290000000000003,0.17812233924865722 c0.05400000000000005,0 0.11700000000000008,-0.010390469789505016 0.19100000000000014,-0.032655762195587204 c0.07300000000000002,-0.022265292406082167 0.14200000000000004,-0.048983643293380785 0.20500000000000004,-0.08757681679725653 l0.08800000000000008,0.5981941893100738 c-0.09300000000000011,0.05788976025581363 -0.20600000000000004,0.10538905072212221 -0.34100000000000036,0.14101351857185376 c-0.134,0.03562446784973147 -0.25,0.054921054601669336 -0.34800000000000036,0.054921054601669336 c-0.23,0 -0.4100000000000002,-0.09648293375968944 -0.542,-0.287964448451996 c-0.132,-0.19296586751937872 -0.19800000000000015,-0.46311808204650906 -0.19800000000000015,-0.8104566435813906 V28.35114087285083 z" id="svg_48"/>
	<path class="st0" d="M119.265,38.02466824687999 c0.03900000000000003,0.007421764135360723 0.07700000000000005,0.011874822616577161 0.11400000000000007,0.017812233924865736 c0.03700000000000001,0.00296870565414429 0.07200000000000002,0.004453058481216437 0.10600000000000002,0.004453058481216437 c0.08800000000000008,0 0.1580000000000001,-0.017812233924865736 0.2090000000000001,-0.054921054601669336 c0.05100000000000004,-0.03562446784973147 0.101,-0.11429516768455514 0.1500000000000001,-0.23898080515861525 c0.04900000000000003,-0.12320128464698801 0.10400000000000002,-0.29983927106857305 0.16400000000000015,-0.5313983120918276 c0.06100000000000004,-0.23304339385032674 0.1480000000000001,-0.5432731347084048 0.26,-0.9351422810554508 l-1.6620000000000008,-5.6642903881072995 h0.512 l1.4140000000000001,4.97851938199997 l1.311,-4.97851938199997 h0.4760000000000002 l-1.9769999999999999,7.304500262022019 c-0.05400000000000005,0.21077810144424444 -0.14300000000000004,0.39335349917411816 -0.267,0.5506948988437657 c-0.125,0.15585704684257518 -0.2940000000000002,0.23304339385032674 -0.509,0.23304339385032674 c-0.04900000000000003,0 -0.09500000000000011,-0.0014843528270721445 -0.139,-0.004453058481216437 c-0.04400000000000004,-0.004453058481216437 -0.09800000000000011,-0.013359175443649304 -0.16100000000000014,-0.028202703714370746 V38.02466824687999 z" id="svg_49"/>
	<path class="st0" d="M124.845,36.01485451902431 c-0.02900000000000002,0.022265292406082167 -0.07200000000000002,0.05195234894752505 -0.128,0.08757681679725653 c-0.05700000000000003,0.03562446784973147 -0.12100000000000002,0.0727332885265351 -0.19400000000000014,0.10835775637626652 c-0.07300000000000002,0.03562446784973147 -0.1560000000000001,0.06828023004531868 -0.2490000000000001,0.09796728658676157 c-0.09300000000000011,0.02968705654144289 -0.19100000000000014,0.043046231985092186 -0.2930000000000002,0.043046231985092186 c-0.10700000000000005,0 -0.2100000000000001,-0.022265292406082167 -0.3070000000000002,-0.06531152439117438 c-0.09800000000000011,-0.043046231985092186 -0.1830000000000001,-0.10984210920333866 -0.256,-0.20038763165473938 c-0.07300000000000002,-0.09202987527847299 -0.132,-0.20484069013595585 -0.1760000000000001,-0.34288550305366533 c-0.04400000000000004,-0.13656046009063735 -0.06600000000000006,-0.2968705654144289 -0.06600000000000006,-0.47796161031723056 V31.21000441779178 h-0.527 v-0.5878037195205694 h0.527 v-1.9133307940959932 h0.4980000000000002 v1.9133307940959932 h0.8790000000000004 v0.5878037195205694 h-0.8790000000000004 v3.8474425277709963 c0.009000000000000011,0.21077810144424444 0.06000000000000004,0.36515079545974755 0.1500000000000001,0.46311808204650906 c0.0900000000000001,0.09796728658676157 0.19400000000000014,0.1454665770530702 0.3110000000000002,0.1454665770530702 c0.14200000000000004,0 0.266,-0.03414011502265934 0.3740000000000002,-0.102420345067978 c0.10700000000000005,-0.0697645828723908 0.1760000000000001,-0.11874822616577158 0.20500000000000004,-0.14695092988014238 L124.845,36.01485451902431 z" id="svg_50"/>
	<path class="st0" d="M125.467,29.437687142267638 v-1.0865462694168095 h0.4980000000000002 v1.0865462694168095 H125.467 zM125.467,36.28649108637851 v-5.6642903881072995 h0.4980000000000002 V36.28649108637851 H125.467 z" id="svg_51"/>
	<path class="st0" d="M126.8,33.438018011227065 c0,-0.39780655765533457 0.04600000000000005,-0.7748321757316587 0.139,-1.131076854228974 c0.09300000000000011,-0.35476032567024246 0.22300000000000014,-0.6635057137012484 0.3910000000000003,-0.9292048697471622 c0.16900000000000018,-0.2642148032188418 0.3700000000000002,-0.472024199008942 0.6040000000000004,-0.6249125401973725 c0.234,-0.15288834118843087 0.4940000000000002,-0.22859033536911028 0.777,-0.22859033536911028 c0.3610000000000002,0 0.6760000000000007,0.12171693181991586 0.9450000000000004,0.36366644263267534 c0.269,0.24343386363983172 0.4710000000000002,0.5714758384227757 0.6080000000000004,0.985610277175904 l-0.4830000000000002,0.22859033536911028 c-0.10800000000000005,-0.29093315410614023 -0.258,-0.5180391366481788 -0.451,-0.6798335947990418 c-0.19300000000000014,-0.16327881097793587 -0.4070000000000002,-0.24343386363983172 -0.6410000000000005,-0.24343386363983172 c-0.19600000000000015,0 -0.3770000000000002,0.05788976025581363 -0.546,0.17366928076744095 c-0.16900000000000018,0.11429516768455514 -0.3150000000000002,0.2731209201812746 -0.4390000000000002,0.472024199008942 c-0.125,0.1989032788276673 -0.22200000000000014,0.43639973115921055 -0.2930000000000002,0.7110050041675571 c-0.07100000000000002,0.2760896258354189 -0.10600000000000002,0.5759288969039922 -0.10600000000000002,0.9024865188598636 c0,0.31913585782051096 0.03700000000000001,0.6204594817161563 0.11000000000000006,0.9024865188598636 c0.07300000000000002,0.2835113899707796 0.17300000000000001,0.5269452536106114 0.3000000000000002,0.7332702965736394 c0.127,0.20632504296302798 0.274,0.3696038539409639 0.4430000000000002,0.48983643293380774 c0.16900000000000018,0.12023257899284369 0.34800000000000036,0.17812233924865722 0.539,0.17812233924865722 c0.12200000000000005,0 0.2430000000000001,-0.02523399806022646 0.3620000000000002,-0.0757019941806794 c0.12000000000000002,-0.048983643293380785 0.231,-0.12171693181991586 0.33300000000000035,-0.21077810144424444 c0.10300000000000002,-0.09054552245140086 0.19100000000000014,-0.19445022034645087 0.264,-0.3102297408580782 c0.07300000000000002,-0.11429516768455514 0.125,-0.23898080515861525 0.1530000000000001,-0.36811950111389186 l0.4910000000000002,0.2167155127525331 c-0.05400000000000005,0.2033563373088837 -0.132,0.39038479351997396 -0.234,0.5610853686332706 c-0.10300000000000002,0.1692162222862245 -0.22300000000000014,0.31913585782051096 -0.3620000000000002,0.44530584812164337 c-0.139,0.1261699903011323 -0.2930000000000002,0.22413727688789384 -0.462,0.29241750693321245 c-0.16900000000000018,0.0697645828723908 -0.34300000000000036,0.10390469789505005 -0.523,0.10390469789505005 c-0.278,0 -0.535,-0.07718634700775152 -0.7690000000000005,-0.23304339385032674 c-0.234,-0.15734139966964727 -0.4370000000000002,-0.3696038539409639 -0.6080000000000004,-0.6412404212951663 c-0.171,-0.2716365673542025 -0.3040000000000002,-0.5863193666934974 -0.39900000000000035,-0.9395953395366674 C126.848,34.2247250095753 126.8,33.84324633301776 126.8,33.438018011227065 z" id="svg_52"/>
	<path class="st0" d="M132.352,36.39484884275478 c-0.2980000000000002,0 -0.5880000000000004,-0.0727332885265351 -0.8710000000000004,-0.21819986557960525 s-0.527,-0.35476032567024246 -0.7320000000000004,-0.6308499515056615 l0.22700000000000015,-0.5002269027233127 c0.2150000000000001,0.26124609756469735 0.4330000000000002,0.4571806707382205 0.6550000000000006,0.5878037195205694 c0.22200000000000014,0.13062304878234873 0.46,0.19593457317352297 0.7140000000000004,0.19593457317352297 c0.3080000000000002,0 0.553,-0.09202987527847299 0.7360000000000004,-0.2760896258354189 c0.1830000000000001,-0.18554410338401794 0.275,-0.44679020094871547 0.275,-0.7881913511753084 c0,-0.16031010532379159 -0.02500000000000002,-0.29241750693321245 -0.07300000000000002,-0.39780655765533457 c-0.04900000000000003,-0.10390469789505005 -0.12100000000000002,-0.19741892600059516 -0.2160000000000001,-0.2760896258354189 c-0.09500000000000011,-0.07867069983482365 -0.2150000000000001,-0.15140398836135874 -0.3590000000000002,-0.21226245427131665 c-0.14400000000000004,-0.06085846590995794 -0.3110000000000002,-0.12468563747406014 -0.502,-0.18999716186523447 c-0.2200000000000001,-0.07867069983482365 -0.4100000000000002,-0.16031010532379159 -0.5710000000000004,-0.23898080515861525 c-0.16100000000000014,-0.07867069983482365 -0.2940000000000002,-0.17070057511329662 -0.39900000000000035,-0.2716365673542025 c-0.10500000000000002,-0.10093599224090584 -0.1830000000000001,-0.22710598254203818 -0.234,-0.37405691242218025 c-0.05100000000000004,-0.14843528270721446 -0.07700000000000005,-0.3354637389183046 -0.07700000000000005,-0.5610853686332706 c0,-0.2805426843166353 0.03800000000000001,-0.5313983120918276 0.11300000000000006,-0.7495981776714327 c0.07600000000000005,-0.21819986557960525 0.1780000000000001,-0.39780655765533457 0.3080000000000002,-0.5388200762271885 s0.281,-0.24640256929397597 0.454,-0.32062021064758317 c0.17300000000000001,-0.0727332885265351 0.3570000000000002,-0.10835775637626652 0.553,-0.10835775637626652 c0.2930000000000002,0 0.559,0.07124893569946289 0.798,0.21077810144424444 c0.2390000000000001,0.14101351857185376 0.4320000000000002,0.3295263276100161 0.5790000000000004,0.5610853686332706 l-0.2420000000000001,0.43491537833213834 c-0.14200000000000004,-0.21819986557960525 -0.3140000000000002,-0.3799943237304689 -0.517,-0.48983643293380774 c-0.203,-0.10835775637626652 -0.4130000000000002,-0.16327881097793587 -0.6330000000000005,-0.16327881097793587 c-0.132,0 -0.254,0.020780939579010022 -0.3660000000000002,0.05937411308288579 c-0.11200000000000006,0.04007752633094792 -0.2110000000000001,0.10390469789505005 -0.2960000000000002,0.19148151469230656 c-0.08600000000000008,0.08757681679725653 -0.1530000000000001,0.19741892600059516 -0.202,0.33101068043708826 c-0.04900000000000003,0.13507610726356517 -0.07300000000000002,0.29241750693321245 -0.07300000000000002,0.472024199008942 c0,0.15288834118843087 0.017000000000000015,0.2760896258354189 0.05100000000000004,0.3696038539409639 c0.03400000000000003,0.09499858093261729 0.09100000000000011,0.17515363359451303 0.16900000000000018,0.2449182164669039 c0.07800000000000006,0.06828023004531868 0.1770000000000001,0.13062304878234873 0.2970000000000002,0.18554410338401794 c0.11900000000000008,0.054921054601669336 0.264,0.10984210920333866 0.4350000000000002,0.1677318694591523 c0.2440000000000001,0.08757681679725653 0.459,0.17366928076744095 0.6440000000000005,0.26124609756469735 c0.1860000000000001,0.08757681679725653 0.34100000000000036,0.18851280903816225 0.465,0.3042923295497895 c0.125,0.11726387333869945 0.2180000000000001,0.2582773919105531 0.2820000000000002,0.42452490854263336 c0.06300000000000006,0.1662475166320802 0.09500000000000011,0.3696038539409639 0.09500000000000011,0.6085846590995792 c0,0.5210078423023226 -0.134,0.9336579282283789 -0.402,1.2379502577781683 S132.806,36.39484884275478 132.352,36.39484884275478 z" id="svg_53"/>
</g></g></svg>